Wide-Medium.sfdir
StartChar: exclam
Encoding: 33 33 63
Width: 1000
Flags: MW
LayerCount: 2
Fore
SplineSet
458 722 m 1xe0
 542 722 l 1xe0
 533 175 l 1
 466 175 l 1xd0
 459 671 l 1
 458 722 l 1xe0
EndSplineSet
Refer: 76 46 S 1 0 0 1 362 0 2
EndChar
StartChar: quotedbl
Encoding: 34 34 64
Width: 1000
Flags: MW
LayerCount: 2
Fore
SplineSet
377 722 m 1
 455 722 l 1xc0
 447 362 l 1
 447 362 l 1xa0
 386 362 l 1xa0
 377 722 l 1
545 722 m 1
 623 722 l 1x90
 614 362 l 1
 553 362 l 1x88
 553 362 l 1x88
 545 722 l 1
EndSplineSet
EndChar
StartChar: numbersign
Encoding: 35 35 65
Width: 1000
Flags: MW
LayerCount: 2
Fore
SplineSet
140 150 m 0
 140 158 143 169 153 175 c 0
 159 178 166 180 177 180 c 2
 342 180 l 1
 375 320 l 1
 175 320 l 2
 165 320 157 322 152 326 c 0
 141 333 140 345 140 350 c 0
 140 358 142 367 150 373 c 0
 156 378 165 381 180 381 c 2
 391 381 l 1
 466 683 l 2
 467 688 470 704 480 714 c 0
 485 719 491 722 500 722 c 0
 516 722 529 708 530 693 c 0
 530 685 528 677 526 670 c 2
 454 381 l 1
 611 381 l 1
 685 683 l 2
 686 688 689 703 698 713 c 0
 703 718 710 722 719 722 c 0
 736 722 749 708 749 692 c 1
 750 685 747 677 746 670 c 2
 674 381 l 1
 810 381 l 2
 828 380 838 381 847 375 c 0
 855 369 860 360 860 350 c 0
 860 343 858 334 850 328 c 0
 844 324 836 320 823 320 c 2
 658 320 l 1
 624 180 l 1
 825 180 l 2
 837 180 845 177 850 172 c 0
 858 165 860 154 860 150 c 0
 860 142 858 132 848 126 c 0
 842 122 833 119 820 119 c 2
 609 119 l 1
 534 -183 l 2
 533 -188 530 -204 520 -214 c 0
 515 -219 509 -222 500 -222 c 0
 484 -222 470 -208 470 -192 c 0
 470 -185 472 -177 474 -170 c 2
 545 119 l 1
 389 119 l 1
 314 -183 l 2
 313 -189 310 -207 298 -216 c 0
 293 -220 288 -222 280 -222 c 0
 264 -222 251 -208 250 -192 c 0
 250 -185 253 -177 254 -170 c 2
 326 119 l 1
 189 119 l 2
 179 119 165 119 154 124 c 0
 146 128 140 136 140 150 c 0
405 180 m 1
 561 180 l 1
 595 320 l 1
 439 320 l 1
 405 180 l 1
EndSplineSet
EndChar
StartChar: dollar
Encoding: 36 36 66
Width: 1000
Flags: W
LayerCount: 2
Fore
SplineSet
261 61 m 1
 273 130 l 1
 293 114 336 70 465 55 c 1
 465 337 l 1
 463 337 l 1
 313 365 272 459 272 534 c 0
 272 616 323 710 465 731 c 1
 465 750 l 1
 553 750 l 1
 553 732 l 1
 635 726 673 711 723 675 c 1
 711 609 l 1
 665 644 631 662 553 667 c 1
 553 414 l 1
 705 383 739 275 739 203 c 0
 739 96 668 7 553 -8 c 1
 553 -28 l 1
 465 -28 l 1
 465 -10 l 1
 380 -4 320 15 261 61 c 1
345 547 m 0
 345 504 368 449 465 430 c 1
 465 665 l 1
 463 665 l 1
 365 642 345 587 345 547 c 0
553 58 m 1
 648 81 666 148 666 190 c 0
 666 233 649 296 553 322 c 1
 553 288 l 1
 553 58 l 1
EndSplineSet
EndChar
StartChar: percent
Encoding: 37 37 67
Width: 1000
Flags: MW
LayerCount: 2
Fore
SplineSet
139 556 m 0
 139 616 159 670 190 706 c 0
 214 733 245 750 279 750 c 0
 309 750 340 735 366 706 c 0
 395 673 417 622 417 555 c 0
 417 496 398 443 369 408 c 0
 345 379 313 361 279 361 c 0
 246 361 213 379 187 410 c 0
 159 444 139 494 139 556 c 0
214 556 m 0
 214 506 222 475 233 456 c 0
 252 421 279 424 282 423 c 1
 300 425 317 440 329 466 c 0
 340 489 347 519 347 556 c 0
 347 601 337 637 322 660 c 0
 310 679 294 689 279 689 c 0
 265 689 248 682 235 660 c 0
 225 644 218 620 215 586 c 0
 214 577 214 567 214 556 c 0
260 -7 m 0
 260 1 267 11 269 13 c 1
 704 737 l 2
 707 742 714 749 723 749 c 0
 733 749 742 741 742 730 c 0
 742 721 734 710 730 702 c 2
 305 -5 l 2
 299 -14 293 -27 280 -27 c 0
 269 -27 260 -18 260 -7 c 0
583 167 m 0
 583 222 600 272 627 308 c 0
 652 341 686 361 723 361 c 0
 756 361 787 345 810 318 c 0
 836 288 853 246 859 198 c 0
 860 188 861 177 861 166 c 0
 861 112 845 63 820 28 c 0
 795 -7 761 -28 723 -28 c 0
 686 -28 649 -6 622 32 c 0
 598 66 583 112 583 167 c 0
658 167 m 0
 658 109 669 76 682 58 c 0
 701 32 724 35 726 34 c 1
 742 36 757 48 769 68 c 0
 782 91 791 125 791 167 c 0
 791 214 780 251 764 274 c 0
 752 291 737 300 723 300 c 0
 710 300 693 293 680 272 c 0
 670 256 662 231 659 194 c 0
 658 186 658 177 658 167 c 0
EndSplineSet
EndChar
StartChar: ampersand
Encoding: 38 38 68
Width: 1000
Flags: MW
LayerCount: 2
Fore
SplineSet
170 150 m 0
 170 246 239 286 323 365 c 1
 306 414 290 476 290 541 c 0
 290 658 346 744 429 744 c 0
 507 744 558 665 558 584 c 0
 558 554 550 517 505 460 c 0
 482 431 451 398 406 358 c 1
 462 244 549 144 564 125 c 9
 565 125 l 17
 608 162 642 205 668 250 c 0
 698 302 718 356 731 405 c 1
 795 389 l 1
 780 333 758 276 725 220 c 0
 696 171 660 124 613 81 c 1
 629 70 643 61 657 54 c 0
 674 46 692 42 716 42 c 0
 739 42 759 45 777 48 c 0
 806 53 826 60 830 60 c 1
 830 -7 l 1
 818 -10 798 -14 775 -17 c 0
 757 -20 736 -22 716 -22 c 0
 677 -22 644 -14 613 0 c 0
 593 9 574 22 555 37 c 1
 554 37 l 1
 508 7 433 -22 353 -22 c 0
 254 -22 170 51 170 150 c 0
248 158 m 0
 248 101 285 42 355 42 c 0
 401 42 452 54 505 83 c 1
 478 114 397 208 349 305 c 1
 289 251 248 225 248 158 c 0
355 576 m 0
 355 520 367 467 382 420 c 1
 417 451 441 479 457 502 c 0
 482 538 489 565 489 585 c 0
 489 620 477 683 428 683 c 0
 399 683 355 657 355 576 c 0
EndSplineSet
EndChar
StartChar: quotesingle
Encoding: 39 39 69
Width: 1000
Flags: MW
LayerCount: 2
Fore
SplineSet
461 722 m 1
 539 722 l 1xc0
 533 465 l 1
 531 362 l 1
 531 362 l 1xa0
 470 362 l 1
 470 362 l 1xa0
 461 722 l 1
EndSplineSet
EndChar
StartChar: parenleft
Encoding: 40 40 70
Width: 1000
Flags: MW
LayerCount: 2
Fore
SplineSet
692 250 m 0
 692 550 815 689 883 750 c 1
 945 750 l 1
 916 719 893 697 864 648 c 0
 793 529 770 387 770 250 c 0
 770 -115 933 -231 945 -250 c 1
 883 -250 l 1
 819 -192 692 -54 692 250 c 0
EndSplineSet
EndChar
StartChar: asterisk
Encoding: 42 42 72
Width: 1000
Flags: MW
LayerCount: 2
Fore
SplineSet
228 108 m 0
 228 132 248 142 260 148 c 2
 472 247 l 1
 472 248 l 1
 403 285 228 364 228 393 c 0
 228 414 247 432 268 432 c 0
 286 432 432 312 485 275 c 1
 483 300 461 526 461 532 c 0
 461 565 487 574 501 574 c 0
 512 574 539 566 539 536 c 0
 539 525 518 333 515 275 c 1
 574 316 717 425 731 425 c 0
 756 425 772 406 772 386 c 0
 772 362 752 352 741 347 c 2
 528 248 l 1
 528 247 l 1
 597 210 772 131 772 102 c 0
 772 81 753 63 732 63 c 0
 712 63 571 183 515 221 c 1
 517 195 539 -32 539 -36 c 0
 539 -70 515 -78 501 -78 c 0
 480 -78 461 -61 461 -41 c 0
 461 -32 482 160 485 221 c 1
 427 180 284 69 269 69 c 0
 245 69 228 89 228 108 c 0
EndSplineSet
EndChar
StartChar: plus
Encoding: 43 43 73
Width: 1000
Flags: MW
LayerCount: 2
Fore
SplineSet
167 250 m 0
 168 267 181 277 189 279 c 0
 197 281 206 281 214 281 c 2
 470 281 l 1
 470 538 l 2
 470 547 471 556 473 563 c 0
 477 575 484 583 500 583 c 0
 517 583 524 574 528 564 c 4
 532 553 531 541 531 538 c 2
 531 281 l 1
 787 281 l 2
 796 281 803 281 810 279 c 0
 824 275 832 267 833 250 c 0
 832 233 824 225 814 222 c 0
 807 220 799 220 793 220 c 2
 531 220 l 1
 531 -38 l 2
 531 -56 531 -65 519 -76 c 0
 513 -81 506 -83 501 -83 c 0
 483 -83 474 -69 471 -60 c 0
 469 -53 470 -46 470 -38 c 2
 470 220 l 1
 212 220 l 2
 211 220 208 219 204 219 c 0
 198 219 193 220 189 221 c 0
 173 226 168 240 167 250 c 0
EndSplineSet
EndChar
StartChar: hyphen
Encoding: 45 45 75
Width: 1000
Flags: MW
LayerCount: 2
Fore
SplineSet
367 193 m 1
 367 252 l 1
 633 252 l 1
 633 193 l 1
 367 193 l 1
EndSplineSet
EndChar
StartChar: period
Encoding: 46 46 76
Width: 1000
Flags: MW
LayerCount: 2
Fore
SplineSet
96 0 m 1
 96 84 l 1
 180 84 l 1
 180 0 l 1
 96 0 l 1
EndSplineSet
EndChar
StartChar: slash
Encoding: 47 47 77
Width: 1000
Flags: W
LayerCount: 2
Fore
SplineSet
80 -219 m 0
 80 -210 87 -194 94 -186 c 2
 850 720 l 2
 857 728 868 749 890 749 c 0
 905 749 920 738 920 719 c 0
 920 711 912 698 906 691 c 2
 146 -220 l 2
 138 -230 131 -240 126 -244 c 0
 119 -249 113 -248 110 -250 c 1
 110 -250 l 2
 94 -250 80 -236 80 -219 c 0
EndSplineSet
EndChar
StartChar: zero
Encoding: 48 48 0
Width: 1000
Flags: W
LayerCount: 2
Fore
SplineSet
247 310 m 2
 247 329 l 2
 247 427 255 615 405 666 c 0
 432 673 461 678 499 678 c 0
 577 678 646 655 680 616 c 0
 740 548 751 433 753 360 c 0
 753 347 753 335 753 325 c 0
 753 122 702 24 594 -11 c 0
 568 -18 538 -22 499 -22 c 0
 375 -22 248 26 247 310 c 2
325 308 m 2
 325 143 365 77 427 52 c 4
 453 42 479 39 501 39 c 0
 531 39 568 45 601 66 c 0
 645 99 675 168 675 309 c 2
 675 370 l 2
 675 468 659 528 636 564 c 0
 597 607 543 616 499 616 c 0
 421 616 325 583 325 370 c 2
 325 308 l 2
EndSplineSet
EndChar
StartChar: one
Encoding: 49 49 1
Width: 1000
Flags: W
LayerCount: 2
Fore
SplineSet
329 554 m 1
 329 612 l 1
 444 612 498 653 525 678 c 1
 544 678 l 1
 544 59 l 1
 671 59 l 1
 671 0 l 1
 334 0 l 1
 334 59 l 1
 464 59 l 1
 464 577 l 1
 424 563 389 554 329 554 c 1
EndSplineSet
EndChar
StartChar: two
Encoding: 50 50 2
Width: 1000
Flags: W
LayerCount: 2
Fore
SplineSet
254 514 m 1
 279 598 332 678 485 678 c 0
 665 678 746 577 746 464 c 0
 746 367 684 313 556 221 c 0
 506 192 434 146 334 70 c 1
 746 71 l 1
 746 0 l 1
 262 0 l 1
 262 65 l 1
 401 194 l 2
 545 283 663 354 663 461 c 0
 663 545 595 613 466 613 c 0
 314 613 301 461 297 459 c 1
 254 514 l 1
EndSplineSet
EndChar
StartChar: three
Encoding: 51 51 3
Width: 1000
Flags: W
LayerCount: 2
Fore
SplineSet
240 81 m 1
 252 142 l 1
 285 97 324 72 358 58 c 0
 414 42 463 40 485 40 c 0
 542 40 587 56 620 82 c 0
 652 107 670 142 670 182 c 0xe8
 670 192 669 202 666 212 c 0
 658 246 635 276 599 296 c 0
 569 313 529 323 478 323 c 2
 368 323 l 1
 368 385 l 1
 455 389 466 390 476 391 c 0
 575 403 640 464 640 525 c 0
 640 552 625 576 599 592 c 0
 572 609 534 618 488 618 c 0
 446 618 404 610 368 597 c 0
 342 584 321 566 306 543 c 0
 300 534 295 524 290 514 c 1
 254 569 l 1
 280 609 311 635 340 651 c 0
 394 675 457 678 491 678 c 0
 557 678 621 664 670 640 c 0
 707 613 732 573 732 525 c 0xf0
 732 497 724 455 692 414 c 0
 675 393 644 372 596 354 c 1
 654 340 690 320 712 296 c 0
 744 262 760 221 760 180 c 0
 760 127 735 71 690 31 c 4
 646 -1 574 -22 486 -22 c 0
 459 -22 397 -20 338 2 c 0
 306 17 271 42 240 81 c 1
EndSplineSet
EndChar
StartChar: four
Encoding: 52 52 4
Width: 1000
Flags: W
LayerCount: 2
Fore
SplineSet
240 171 m 1
 240 219 l 0
 240 232 241 234 251 250 c 2
 560 655 l 1
 661 655 l 1
 661 232 l 1xe8
 760 232 l 1
 760 171 l 1
 661 171 l 1
 661 0 l 1
 578 0 l 1
 578 171 l 1xf0
 240 171 l 1
318 232 m 1
 587 232 l 1xe8
 587 618 l 1
 567 538 489 449 318 232 c 1
EndSplineSet
EndChar
StartChar: seven
Encoding: 55 55 7
Width: 1000
Flags: W
LayerCount: 2
Fore
SplineSet
248 585 m 1
 248 656 l 1
 752 655 l 1
 752 590 l 1
 600 428 459 204 443 -11 c 5
 358 -11 l 1
 358 188 455 404 684 585 c 1
 248 585 l 1
EndSplineSet
EndChar
StartChar: eight
Encoding: 56 56 8
Width: 1000
Flags: W
LayerCount: 2
Fore
SplineSet
228 180 m 0xf2
 228 249 269 319 396 354 c 1
 289 377 242 438 242 502 c 0
 242 595 334 678 500 678 c 0
 503 678 505 678 508 678 c 4
 662 676 758 598 758 503 c 0xec
 758 443 721 385 604 354 c 1
 697 334 772 276 772 179 c 0
 772 74 677 -22 500 -22 c 0
 323 -22 228 73 228 180 c 0xf2
310 181 m 0
 310 131 335 91 380 67 c 0
 412 50 452 40 500 40 c 0
 542 40 587 49 623 69 c 0
 662 91 690 128 690 182 c 0xf2
 690 191 690 200 688 209 c 0
 680 243 660 271 628 291 c 0
 595 312 550 323 498 323 c 0
 462 323 418 315 384 297 c 0
 348 278 319 249 311 205 c 0
 309 197 310 189 310 181 c 0
314 502 m 0
 314 465 336 435 370 415 c 0
 403 396 447 385 498 385 c 0
 549 385 592 395 624 412 c 0
 663 433 686 464 686 502 c 0
 686 512 685 522 682 531 c 0
 673 558 650 581 618 596 c 0
 586 611 546 619 500 619 c 0xec
 450 619 408 610 376 593 c 0
 343 575 322 550 316 519 c 0
 314 514 314 508 314 502 c 0
EndSplineSet
EndChar
StartChar: nine
Encoding: 57 57 9
Width: 1000
Flags: W
LayerCount: 2
Fore
SplineSet
231 435 m 0
 231 508 250 563 303 618 c 0
 361 660 423 678 505 678 c 0
 563 678 635 665 691 621 c 0
 735 572 769 485 769 333 c 0
 769 220 734 124 680 61 c 0
 614 8 527 -22 434 -22 c 0
 341 -22 297 -3 261 24 c 1
 292 78 l 1
 316 62 353 40 437 40 c 0
 509 40 574 67 620 119 c 0
 648 152 672 194 682 245 c 0
 684 255 684 265 685 276 c 1
 620 224 535 193 433 193 c 0
 355 193 312 216 285 254 c 0
 243 312 231 366 231 435 c 0
313 435 m 0
 313 381 317 343 361 301 c 0
 389 274 428 255 491 255 c 0
 548 255 598 273 631 301 c 4
 664 329 683 368 683 410 c 0
 683 476 654 618 506 618 c 0
 464 618 430 609 403 595 c 0
 357 571 331 534 322 507 c 0
 313 483 313 460 313 435 c 0
EndSplineSet
EndChar
StartChar: less
Encoding: 60 60 80
Width: 1000
Flags: MW
LayerCount: 2
Fore
SplineSet
195 250 m 3
 195 266 200 271 229 286 c 2
 755 552 l 2
 761 555 768 558 775 558 c 0
 793 558 805 543 805 528 c 0
 805 506 785 498 771 491 c 2
 294 250 l 1
 313 241 340 227 356 219 c 2
 771 9 l 2
 785 2 805 -6 805 -28 c 0
 805 -44 792 -58 775 -58 c 0
 764 -58 748 -48 736 -42 c 2
 229 214 l 2
 197 230 195 241 195 250 c 3
EndSplineSet
EndChar
StartChar: equal
Encoding: 61 61 81
Width: 1000
Flags: MW
LayerCount: 2
Fore
SplineSet
168 350 m 0
 168 357 170 367 180 374 c 0
 186 378 195 381 208 381 c 6
 792 381 l 2
 804 381 814 379 820 375 c 0
 831 368 832 356 832 350 c 0
 832 343 830 333 822 327 c 0
 816 323 808 320 796 320 c 2
 204 320 l 2
 189 320 181 324 176 329 c 0
 169 336 168 346 168 350 c 0
168 150 m 0
 168 158 171 170 182 176 c 0
 187 179 194 181 204 181 c 0
 207 181 211 180 214 180 c 2
 794 180 l 2
 805 180 814 177 820 174 c 0
 831 167 832 157 832 150 c 0
 832 143 831 134 822 127 c 0
 816 122 806 119 792 119 c 2
 206 119 l 2
 194 119 186 122 180 126 c 0
 170 133 168 143 168 150 c 0
EndSplineSet
EndChar
StartChar: greater
Encoding: 62 62 82
Width: 1000
Flags: MW
LayerCount: 2
Fore
SplineSet
195 -28 m 0
 195 -6 216 2 230 9 c 2
 707 250 l 1
 690 259 667 270 646 281 c 2
 230 491 l 2
 216 498 195 506 195 528 c 0
 195 543 208 558 226 558 c 0
 237 558 253 548 265 542 c 2
 772 286 l 6
 800 272 805 258 805 250 c 3
 805 234 801 229 772 214 c 2
 247 -51 l 2
 240 -55 233 -58 226 -58 c 0
 208 -58 195 -43 195 -28 c 0
EndSplineSet
EndChar
StartChar: question
Encoding: 63 63 83
Width: 1000
Flags: W
LayerCount: 2
Fore
SplineSet
306 677 m 1
 345 705 396 730 468 733 c 0
 472 733 476 733 480 733 c 0
 660 733 694 636 694 571 c 0
 694 484 641 450 625 434 c 0
 511 343 512 246 512 215 c 2
 512 175 l 1
 446 175 l 1
 446 207 l 2
 446 414 570 476 596 508 c 0
 600 513 616 534 616 572 c 0
 616 652 552 672 482 672 c 0xd8
 406 672 362 642 329 614 c 1
 306 677 l 1
EndSplineSet
Refer: 76 46 N 1 0 0 1 340 0 2
EndChar
StartChar: at
Encoding: 64 64 84
Width: 1000
Flags: W
LayerCount: 2
Fore
SplineSet
144 362 m 0
 144 575 323 733 579 733 c 0
 853 733 856 476 856 368 c 0
 856 283 828 219 789 179 c 0
 755 144 701 126 639 126 c 0
 487 126 390 229 390 361 c 0
 390 492 486 597 639 597 c 0
 671 597 694 593 714 588 c 0
 738 582 748 574 756 570 c 1
 726 645 655 672 580 672 c 0
 391 672 219 548 219 361 c 0
 219 187 372 51 588 51 c 0
 716 51 779 85 792 87 c 0
 800 89 808 88 816 88 c 2
 856 88 l 1
 797 22 703 -11 583 -11 c 0
 317 -11 144 148 144 362 c 0
474 362 m 0
 474 260 552 187 639 187 c 0
 683 187 730 208 754 247 c 0
 770 275 781 314 781 360 c 0
 781 467 721 535 637 535 c 0
 595 535 552 516 520 483 c 0
 492 453 474 411 474 362 c 0
EndSplineSet
EndChar
StartChar: A
Encoding: 65 65 10
Width: 1000
Flags: W
LayerCount: 2
Fore
SplineSet
151 0 m 1
 449 694 l 1
 556 694 l 1
 849 0 l 1
 757 0 l 1
 665 204 l 1
 317 204 l 1
 226 0 l 1
 151 0 l 1
342 260 m 1
 640 260 l 1
 506 579 l 25
 491 624 l 17
 473 551 444 497 342 260 c 1
EndSplineSet
EndChar
StartChar: B
Encoding: 66 66 11
Width: 1000
Flags: W
LayerCount: 2
Fore
SplineSet
208 0 m 1
 208 694 l 1
 458 694 l 2
 546 694 613 679 662 657 c 0
 732 620 759 563 759 520 c 0xf8
 759 457 706 392 573 363 c 1
 692 347 792 282 792 188 c 0
 792 121 746 65 676 32 c 0
 638 16 594 6 550 2 c 0
 530 0 509 0 489 0 c 2
 208 0 l 1
292 56 m 1
 463 56 l 2
 566 56 638 83 676 119 c 0
 699 140 710 165 710 189 c 0xf4
 710 233 669 281 595 308 c 0
 567 318 534 326 497 329 c 0
 477 330 456 330 436 330 c 2
 293 330 l 1
 292 293 l 1
 292 56 l 1
292 392 m 1
 436 392 l 2
 530 392 598 416 638 447 c 0
 666 469 680 494 680 519 c 0xf8
 680 567 615 638 430 638 c 2
 293 638 l 1
 292 603 l 1
 292 392 l 1
EndSplineSet
EndChar
StartChar: C
Encoding: 67 67 12
Width: 1000
Flags: W
LayerCount: 2
Fore
SplineSet
208 347 m 0
 208 541 348 716 586 716 c 0
 671 716 729 701 781 682 c 1
 766 599 l 1
 712 632 671 652 581 652 c 0
 412 652 298 505 298 347 c 0
 298 186 412 42 585 42 c 0
 702 42 736 70 786 103 c 1
 792 33 l 1
 722 -8 682 -22 583 -22 c 0
 347 -22 208 155 208 347 c 0
EndSplineSet
EndChar
StartChar: D
Encoding: 68 68 13
Width: 1000
Flags: W
LayerCount: 2
Fore
SplineSet
175 0 m 1
 175 694 l 1
 453 694 l 2
 529 694 588 686 659 647 c 0
 770 582 825 462 825 342 c 0
 825 166 701 20 513 2 c 0
 494 0 474 0 455 0 c 2
 175 0 l 1
262 56 m 1
 433 56 l 2
 471 56 584 56 667 148 c 0
 717 203 738 272 738 341 c 0
 738 402 723 451 703 489 c 0
 673 546 631 579 603 596 c 0
 547 630 494 638 433 638 c 2
 262 638 l 1
 262 56 l 1
EndSplineSet
EndChar
StartChar: E
Encoding: 69 69 14
Width: 1000
Flags: W
LayerCount: 2
Fore
SplineSet
244 0 m 1
 244 691 l 1
 742 691 l 1
 742 625 l 1
 334 627 l 1
 334 390 l 1
 715 390 l 1
 715 329 l 1
 334 329 l 1
 334 70 l 1
 756 72 l 1
 756 0 l 1
 244 0 l 1
EndSplineSet
EndChar
StartChar: F
Encoding: 70 70 15
Width: 1000
Flags: W
LayerCount: 2
Fore
SplineSet
261 0 m 1
 261 691 l 1
 739 691 l 1
 739 625 l 1
 351 627 l 1
 351 376 l 1
 697 376 l 1
 697 315 l 1
 351 315 l 1
 351 0 l 1
 261 0 l 1
EndSplineSet
EndChar
StartChar: G
Encoding: 71 71 16
Width: 1000
Flags: W
LayerCount: 2
Fore
SplineSet
197 347 m 0
 197 541 340 716 569 716 c 0
 673 716 737 697 795 668 c 1
 780 585 l 1
 724 627 671 652 571 652 c 0
 401 652 287 506 287 348 c 0
 287 176 412 42 570 42 c 0
 659 42 717 62 725 63 c 1
 725 237 l 1
 565 237 l 1
 565 299 l 1
 803 299 l 1
 803 26 l 1
 727 -9 645 -22 569 -22 c 0
 349 -22 197 144 197 347 c 0
EndSplineSet
EndChar
StartChar: H
Encoding: 72 72 17
Width: 1000
Flags: W
LayerCount: 2
Fore
SplineSet
206 0 m 1
 206 694 l 1
 296 694 l 1
 296 392 l 1
 704 392 l 1
 704 694 l 1
 794 694 l 1
 794 0 l 1
 704 0 l 1
 704 330 l 1
 296 330 l 1
 296 0 l 1
 206 0 l 1
EndSplineSet
EndChar
StartChar: I
Encoding: 73 73 18
Width: 1000
Flags: W
LayerCount: 2
Fore
SplineSet
455 0 m 1
 455 694 l 1
 545 694 l 1
 545 0 l 1
 455 0 l 1
EndSplineSet
EndChar
StartChar: J
Encoding: 74 74 19
Width: 1000
Flags: W
LayerCount: 2
Fore
SplineSet
312 20 m 1
 326 95 l 1
 335 88 378 40 459 40 c 0
 527 40 600 63 600 157 c 2
 600 694 l 1
 688 694 l 1
 688 155 l 2
 688 13 591 -22 494 -22 c 0
 433 -22 373 -11 312 20 c 1
EndSplineSet
EndChar
StartChar: K
Encoding: 75 75 20
Width: 1000
Flags: W
LayerCount: 2
Fore
SplineSet
184 0 m 1
 184 694 l 1
 270 694 l 1
 270 323 l 1
 706 694 l 1
 802 694 l 1
 496 420 l 1
 496 419 l 1
 816 0 l 1
 722 0 l 1
 430 363 l 1
 270 228 l 1
 270 0 l 1
 184 0 l 1
EndSplineSet
EndChar
StartChar: L
Encoding: 76 76 21
Width: 1000
Flags: W
LayerCount: 2
Fore
SplineSet
278 0 m 1
 278 694 l 1
 368 694 l 1
 368 65 l 1
 722 66 l 1
 722 0 l 1
 278 0 l 1
EndSplineSet
EndChar
StartChar: M
Encoding: 77 77 22
Width: 1000
Flags: W
LayerCount: 2
Fore
SplineSet
111 0 m 1
 111 694 l 1
 232 694 l 1
 417 293 l 2
 466 181 494 116 499 92 c 1
 501 92 l 1
 507 126 574 268 582 292 c 2
 767 694 l 1
 889 694 l 1
 889 0 l 1
 811 0 l 1
 811 592 l 2
 811 612 810 624 810 624 c 1
 810 624 806 606 798 587 c 2
 726 423 l 25
 541 22 l 1
 455 22 l 1
 275 411 l 2
 229 517 200 580 189 624 c 1
 189 0 l 1
 111 0 l 1
EndSplineSet
EndChar
StartChar: N
Encoding: 78 78 23
Width: 1000
Flags: W
LayerCount: 2
Fore
SplineSet
206 0 m 1
 206 694 l 1
 340 694 l 1
 669 150 l 1
 716 70 l 1
 716 694 l 1
 794 694 l 1
 794 0 l 1
 660 0 l 1
 331 544 l 1
 284 624 l 1
 284 0 l 1
 206 0 l 1
EndSplineSet
EndChar
StartChar: O
Encoding: 79 79 24
Width: 1000
Flags: W
LayerCount: 2
Fore
SplineSet
144 345 m 0
 144 554 298 716 501 716 c 0
 700 716 856 555 856 345 c 0
 856 143 710 -22 500 -22 c 0
 304 -22 144 132 144 345 c 0
234 359 m 0
 234 190 340 43 500 43 c 0
 652 43 768 182 768 359 c 0
 768 540 639 652 500 652 c 0
 352 652 234 531 234 359 c 0
EndSplineSet
EndChar
StartChar: P
Encoding: 80 80 25
Width: 1000
Flags: W
LayerCount: 2
Fore
SplineSet
225 0 m 1
 225 694 l 1
 490 694 l 2
 555 694 614 688 675 655 c 0
 739 618 775 558 775 493 c 0
 775 409 706 288 495 288 c 0
 482 288 469 289 456 289 c 2
 315 289 l 1
 315 0 l 1
 225 0 l 1
312 347 m 1
 471 347 l 2
 650 347 694 434 694 493 c 0
 694 550 650 638 471 638 c 2
 312 638 l 1
 312 347 l 1
EndSplineSet
EndChar
StartChar: Q
Encoding: 81 81 26
Width: 1000
Flags: W
LayerCount: 2
Fore
SplineSet
142 345 m 0
 142 513 243 674 431 710 c 0
 454 714 476 716 499 716 c 0
 584 716 666 687 730 638 c 0
 810 571 858 466 858 345 c 0
 858 152 737 58 699 33 c 1
 830 -125 l 1
 715 -125 l 1
 615 -5 l 1
 583 -13 552 -22 499 -22 c 0
 414 -22 335 6 271 54 c 0
 191 120 142 224 142 345 c 0
229 344 m 0
 229 199 313 83 432 51 c 0
 454 45 477 42 501 42 c 0
 535 42 555 49 568 51 c 1
 447 195 l 1
 553 195 l 1
 647 90 l 1
 648 90 l 1
 686 119 771 191 771 344 c 0
 771 452 727 542 659 596 c 0
 615 632 558 652 498 652 c 2
 497 652 l 2
 435 651 376 628 329 586 c 0
 274 537 237 463 231 370 c 0
 231 361 229 353 229 344 c 0
EndSplineSet
EndChar
StartChar: R
Encoding: 82 82 27
Width: 1000
Flags: W
LayerCount: 2
Fore
SplineSet
204 0 m 1
 204 694 l 1
 458 694 l 2
 548 694 616 678 665 655 c 0
 738 615 764 553 764 508 c 0
 764 437 711 360 575 326 c 1
 796 0 l 1
 706 0 l 1
 481 316 l 1
 292 316 l 1
 292 0 l 1
 204 0 l 1
292 378 m 1
 428 378 l 2
 470 378 517 376 569 391 c 0
 649 414 683 461 683 507 c 0
 683 540 666 581 610 609 c 0
 575 626 525 638 454 638 c 2
 292 638 l 1
 292 378 l 1
EndSplineSet
EndChar
StartChar: S
Encoding: 83 83 28
Width: 1000
Flags: W
LayerCount: 2
Fore
SplineSet
248 47 m 1
 263 130 l 1
 311 91 387 47 505 47 c 0
 609 47 672 110 672 179 c 0
 672 232 637 279 577 299 c 0
 494 327 357 320 288 421 c 0
 271 448 260 479 259 519 c 0
 259 616 345 716 514 716 c 0
 520 716 525 716 531 716 c 0
 617 714 668 694 717 668 c 1
 703 585 l 1
 654 624 608 649 513 649 c 0
 404 649 339 590 339 531 c 0
 339 481 382 442 435 424 c 0
 470 413 573 397 615 382 c 0
 682 356 752 289 752 189 c 0
 752 81 663 -22 505 -22 c 0
 395 -22 311 7 248 47 c 1
EndSplineSet
EndChar
StartChar: T
Encoding: 84 84 29
Width: 1000
Flags: W
LayerCount: 2
Fore
SplineSet
168 623 m 1
 168 689 l 1
 832 689 l 1
 832 623 l 1
 545 624 l 1
 545 0 l 1
 456 0 l 1
 456 624 l 1
 168 623 l 1
EndSplineSet
EndChar
StartChar: U
Encoding: 85 85 30
Width: 1000
Flags: W
LayerCount: 2
Fore
SplineSet
217 257 m 2
 217 694 l 1
 307 694 l 1
 307 279 l 2
 307 252 306 224 310 197 c 0
 315 162 329 127 354 98 c 0
 386 61 436 34 502 34 c 0
 550 34 602 49 640 82 c 0
 674 111 698 154 703 212 c 2
 703 694 l 1
 782 694 l 1
 782 266 l 2
 782 242 792 136 707 50 c 0
 667 16 596 -22 502 -22 c 0
 423 -22 351 3 300 43 c 0
 257 82 227 136 219 196 c 0
 217 217 217 237 217 257 c 2
EndSplineSet
EndChar
StartChar: V
Encoding: 86 86 31
Width: 1000
Flags: W
LayerCount: 2
Fore
SplineSet
141 694 m 1
 234 694 l 1
 412 300 l 2
 468 163 487 117 499 70 c 1
 505 112 575 260 590 295 c 2
 781 694 l 1
 859 694 l 1
 537 0 l 1
 445 0 l 1
 141 694 l 1
EndSplineSet
EndChar
StartChar: W
Encoding: 87 87 32
Width: 1000
Flags: W
LayerCount: 2
Fore
SplineSet
42 694 m 1
 130 694 l 1
 130 694 227 359 262 208 c 10
 296 70 l 1
 300 115 330 225 348 290 c 2
 464 694 l 1
 546 694 l 1
 546 694 612 476 664 283 c 2
 692 175 l 18
 706 125 714 80 716 70 c 1
 719 104 752 229 768 289 c 2
 886 694 l 1
 958 694 l 1
 754 0 l 1
 668 0 l 1
 560 369 l 2
 504 577 512 549 498 624 c 1
 494 585 457 454 438 388 c 2
 326 0 l 1
 246 0 l 1
 42 694 l 1
EndSplineSet
EndChar
StartChar: X
Encoding: 88 88 33
Width: 1000
Flags: W
LayerCount: 2
Fore
SplineSet
137 0 m 1
 440 365 l 1
 440 366 l 1
 151 694 l 1
 261 694 l 1
 492 433 l 1
 718 694 l 1
 821 694 l 1
 544 366 l 1
 544 365 l 1
 863 0 l 1
 758 0 l 1
 494 305 l 1
 491 305 l 1
 233 0 l 1
 137 0 l 1
EndSplineSet
EndChar
StartChar: Y
Encoding: 89 89 34
Width: 1000
Flags: W
LayerCount: 2
Fore
SplineSet
128 694 m 1
 233 694 l 1
 406 481 l 2
 459 415 493 376 511 348 c 1
 543 397 784 694 784 694 c 17
 872 694 l 1
 535 278 l 1
 535 0 l 1
 448 0 l 1
 448 278 l 1
 128 694 l 1
EndSplineSet
EndChar
StartChar: Z
Encoding: 90 90 35
Width: 1000
Flags: W
LayerCount: 2
Fore
SplineSet
221 0 m 1
 221 25 l 2
 221 44 221 44 234 63 c 2
 659 632 l 1
 235 631 l 1
 235 694 l 5
 774 694 l 1
 774 670 l 2
 774 651 773 652 761 633 c 2
 336 65 l 1
 779 66 l 1
 779 0 l 1
 221 0 l 1
EndSplineSet
EndChar
StartChar: bracketleft
Encoding: 91 91 85
Width: 1000
Flags: MW
LayerCount: 2
Fore
SplineSet
679 -250 m 1xd0
 679 750 l 1
 945 750 l 1
 945 689 l 1xd0
 754 689 l 1
 754 -189 l 1xe0
 945 -189 l 1
 945 -250 l 1
 679 -250 l 1xd0
EndSplineSet
EndChar
StartChar: backslash
Encoding: 92 92 86
Width: 1000
Flags: W
LayerCount: 2
Fore
SplineSet
79 719 m 0
 79 737 90 749 105 749 c 0
 129 749 141 721 149 711 c 2
 907 -197 l 2
 911 -202 921 -211 921 -219 c 0
 921 -233 909 -250 891 -250 c 0
 870 -250 854 -217 845 -206 c 2
 85 709 l 2
 83 711 79 716 79 719 c 0
EndSplineSet
EndChar
StartChar: bracketright
Encoding: 93 93 87
Width: 1000
Flags: MW
LayerCount: 2
Fore
SplineSet
55 -189 m 1xe0
 245 -189 l 1
 245 689 l 1xd0
 55 689 l 1
 55 750 l 1
 321 750 l 1
 321 -250 l 1
 55 -250 l 1
 55 -189 l 1xe0
EndSplineSet
EndChar
StartChar: asciicircum
Encoding: 94 94 88
Width: 1000
Flags: MW
LayerCount: 2
Fore
SplineSet
328 445 m 1
 469 630 l 1
 531 630 l 1
 672 445 l 1
 611 445 l 1
 500 581 l 1
 389 445 l 1
 328 445 l 1
EndSplineSet
EndChar
StartChar: underscore
Encoding: 95 95 89
Width: 1000
Flags: MW
LayerCount: 2
Fore
SplineSet
100 -228 m 0
 100 -206 123 -208 134 -208 c 2
 867 -208 l 2
 878 -208 900 -206 900 -228 c 0
 900 -236 896 -248 872 -248 c 2
 134 -248 l 2
 121 -248 100 -248 100 -228 c 0
EndSplineSet
EndChar
StartChar: grave
Encoding: 96 96 90
Width: 1000
Flags: MW
LayerCount: 2
Fore
SplineSet
394 640 m 1
 472 640 l 1
 606 510 l 1
 544 510 l 1
 394 640 l 1
EndSplineSet
EndChar
StartChar: a
Encoding: 97 97 36
Width: 1000
Flags: W
LayerCount: 2
Fore
SplineSet
293 113 m 0
 293 219 495 244 629 245 c 1
 629 279 l 2
 628 311 627 341 603 371 c 0
 575 400 536 401 516 401 c 0
 408 401 366 373 332 350 c 1
 326 417 l 1
 373 444 421 461 521 461 c 0
 637 461 701 387 707 305 c 2
 707 0 l 1
 631 0 l 1
 631 35 l 1
 573 -2 475 -11 407 -11 c 0
 323 -11 293 67 293 113 c 0
366 114 m 0
 366 77 406 51 482 51 c 0
 551 51 629 66 629 130 c 2
 629 193 l 1
 541 192 366 177 366 114 c 0
EndSplineSet
EndChar
StartChar: b
Encoding: 98 98 37
Width: 1000
Flags: W
LayerCount: 2
Fore
SplineSet
240 0 m 1
 240 722 l 1
 315 722 l 1
 315 397 l 1
 411 448 508 455 554 455 c 0
 696 455 760 344 760 224 c 0
 760 93 677 -11 519 -11 c 0
 431 -11 369 16 318 46 c 1
 318 0 l 1
 240 0 l 1
318 133 m 2
 318 107 324 108 344 90 c 0
 378 61 422 50 466 50 c 0
 616 50 681 92 681 223 c 0
 681 356 632 394 478 394 c 0
 402 394 318 357 318 320 c 2
 318 133 l 2
EndSplineSet
EndChar
StartChar: c
Encoding: 99 99 38
Width: 1000
Flags: W
LayerCount: 2
Fore
SplineSet
264 223 m 0
 264 339 346 461 556 461 c 0
 638 461 669 452 730 417 c 1
 718 351 l 1
 679 375 654 397 554 397 c 0
 428 397 361 330 346 255 c 4
 344 244 342 234 342 223 c 0
 342 126 426 53 552 53 c 0
 651 53 698 85 730 107 c 1
 736 40 l 1
 691 10 641 -11 551 -11 c 0
 367 -11 264 94 264 223 c 0
EndSplineSet
EndChar
StartChar: d
Encoding: 100 100 39
Width: 1000
Flags: W
LayerCount: 2
Fore
SplineSet
240 221 m 0
 240 303 270 374 317 416 c 0
 359 441 411 456 468 456 c 0
 561 456 633 429 684 401 c 1
 684 722 l 1
 760 722 l 1
 760 0 l 1
 681 0 l 1
 681 52 l 1
 630 20 558 -11 459 -11 c 0
 405 -11 356 3 316 28 c 0
 270 70 240 142 240 221 c 0
318 222 m 0
 318 150 332 105 378 80 c 0
 416 59 484 51 520 51 c 0
 608 51 681 101 681 134 c 2
 681 325 l 2
 681 341 678 347 650 364 c 0
 605 393 554 394 538 394 c 2
 536 394 l 2
 384 394 318 353 318 222 c 0
EndSplineSet
EndChar
StartChar: e
Encoding: 101 101 40
Width: 1000
Flags: W
LayerCount: 2
Fore
SplineSet
262 226 m 0
 262 351 358 461 530 461 c 0
 630 461 729 420 738 249 c 2
 738 220 l 1
 332 220 l 1
 335 169 364 125 408 94 c 4
 447 67 496 51 554 51 c 0
 643 51 691 79 728 106 c 1
 734 40 l 1
 691 11 638 -11 554 -11 c 0
 358 -11 262 102 262 226 c 0
340 275 m 1
 680 275 l 1
 664 387 574 399 530 399 c 0
 416 399 356 325 340 275 c 1
EndSplineSet
EndChar
StartChar: f
Encoding: 102 102 41
Width: 1000
Flags: W
LayerCount: 2
Fore
SplineSet
365 386 m 1
 365 445 l 1
 439 445 l 1
 439 518 l 2
 439 526 438 534 438 542 c 0
 438 607 459 657 493 689 c 0
 523 718 563 733 606 733 c 0
 637 733 662 728 685 722 c 1
 685 655 l 1
 662 664 636 672 604 672 c 0
 583 672 556 666 537 648 c 0
 522 634 511 613 511 581 c 2
 511 445 l 1
 624 445 l 1
 624 386 l 1
 514 386 l 1
 514 0 l 1
 439 0 l 1
 439 386 l 1
 365 386 l 1
EndSplineSet
EndChar
StartChar: g
Encoding: 103 103 42
Width: 1000
Flags: W
LayerCount: 2
Fore
SplineSet
331 292 m 0
 331 263 342 240 360 222 c 0
 384 199 421 187 466 187 c 0
 496 187 536 194 564 216 c 0
 585 232 600 257 600 293 c 0
 600 301 599 309 597 316 c 0
 591 343 574 364 550 378 c 0
 528 391 499 398 465 398 c 0
 438 398 403 393 376 376 c 0
 355 363 339 344 333 315 c 0
 331 308 331 300 331 292 c 0
296 -71 m 0
 296 -94 312 -112 337 -124 c 0
 377 -138 430 -146 475 -148 c 0
 485 -149 495 -149 504 -149 c 0
 574 -149 628 -138 657 -120 c 0
 677 -107 690 -91 690 -72 c 0
 690 -31 649 -3 511 -3 c 2
 417 -3 l 1
 373 -4 l 2
 318 -7 296 -43 296 -71 c 0
226 -71 m 0
 226 -30 251 9 290 32 c 1
 274 55 265 76 265 108 c 0
 265 140 276 168 294 192 c 1
 294 193 l 1
 264 233 261 272 261 292 c 0
 261 340 283 387 319 418 c 0
 353 441 405 455 465 455 c 0
 473 455 479 454 487 454 c 0
 531 451 567 442 605 424 c 1
 654 444 711 455 763 455 c 1
 774 392 l 1
 754 394 735 395 715 395 c 0
 692 395 657 392 637 391 c 1
 660 359 670 332 670 292 c 0
 670 248 652 206 622 176 c 0
 591 147 533 129 465 129 c 0
 381 129 333 158 329 159 c 0
 319 139 318 129 318 122 c 0
 318 98 330 69 396 69 c 2
 508 69 l 2
 565 69 633 68 679 49 c 4
 713 35 743 10 755 -33 c 0
 758 -45 760 -57 760 -70 c 0
 760 -115 727 -154 675 -178 c 0
 637 -196 585 -206 507 -206 c 0
 438 -206 373 -197 323 -183 c 0
 290 -170 264 -152 247 -130 c 0
 234 -112 226 -92 226 -71 c 0
EndSplineSet
EndChar
StartChar: h
Encoding: 104 104 43
Width: 1000
Flags: W
LayerCount: 2
Fore
SplineSet
271 0 m 1
 271 722 l 1
 346 722 l 1
 346 384 l 1
 396 422 458 455 562 455 c 0
 700 455 723 385 728 326 c 0
 729 312 729 299 729 288 c 2
 729 0 l 1
 651 0 l 1
 651 281 l 2
 651 364 634 394 504 394 c 0
 390 394 351 314 351 240 c 2
 351 0 l 1
 271 0 l 1
EndSplineSet
EndChar
StartChar: i
Encoding: 105 105 44
Width: 1000
Flags: W
LayerCount: 2
Fore
SplineSet
462 0 m 5
 462 445 l 5
 537 445 l 5
 537 0 l 5
 462 0 l 5
455 590 m 1
 455 679 l 1
 545 679 l 1
 545 590 l 1
 455 590 l 1
EndSplineSet
EndChar
StartChar: j
Encoding: 106 106 45
Width: 1000
Flags: W
LayerCount: 2
Fore
SplineSet
335 -171 m 1
 350 -110 l 1
 375 -130 397 -141 428 -141 c 0
 469 -141 497 -117 504 -91 c 0
 506 -83 506 -74 506 -65 c 2
 506 445 l 1
 581 445 l 1
 581 -50 l 2xe8
 581 -105 565 -142 544 -166 c 0
 518 -195 483 -205 455 -205 c 0
 407 -205 366 -189 335 -171 c 1
492 590 m 1
 492 679 l 1
 582 679 l 1
 582 590 l 1
 492 590 l 1
EndSplineSet
EndChar
StartChar: k
Encoding: 107 107 46
Width: 1000
Flags: W
LayerCount: 2
Fore
SplineSet
248 0 m 1
 248 722 l 1
 320 722 l 1
 320 223 l 1
 626 445 l 1
 730 445 l 1
 508 273 l 1
 752 0 l 1
 646 0 l 1
 436 224 l 1
 318 142 l 1
 318 0 l 1
 248 0 l 1
EndSplineSet
EndChar
StartChar: l
Encoding: 108 108 47
Width: 1000
Flags: W
LayerCount: 2
Fore
SplineSet
462 0 m 1
 462 722 l 1
 538 722 l 1
 538 0 l 1
 462 0 l 1
EndSplineSet
EndChar
StartChar: m
Encoding: 109 109 48
Width: 1000
Flags: W
LayerCount: 2
Fore
SplineSet
183 0 m 1xdc
 183 450 l 1
 256 450 l 1
 256 404 l 1
 256 380 l 1
 270 398 314 455 402 455 c 0
 486 455 515 412 529 374 c 1
 544 394 589 455 680 455 c 0
 721 455 750 445 770 429 c 4
 800 405 811 368 815 334 c 0
 817 317 817 302 817 288 c 2
 817 0 l 1
 738 0 l 1
 738 281 l 2
 738 340 728 394 641 394 c 0
 565 394 539 314 539 240 c 2
 539 0 l 1
 461 0 l 1
 461 281 l 2
 461 340 450 394 363 394 c 0xec
 287 394 261 314 261 240 c 2
 261 0 l 1
 183 0 l 1xdc
EndSplineSet
EndChar
StartChar: n
Encoding: 110 110 49
Width: 1000
Flags: W
LayerCount: 2
Fore
SplineSet
272 0 m 1xd8
 272 450 l 1
 345 450 l 1
 345 408 l 1
 345 380 l 1
 363 398 430 455 562 455 c 0
 638 455 674 440 694 417 c 0
 715 393 723 360 726 328 c 0
 727 314 728 301 728 288 c 2
 728 0 l 1
 650 0 l 1
 650 281 l 2
 650 366 633 394 503 394 c 0xe8
 389 394 350 314 350 240 c 2
 350 0 l 1
 272 0 l 1xd8
EndSplineSet
EndChar
StartChar: o
Encoding: 111 111 50
Width: 1000
Flags: W
LayerCount: 2
Fore
SplineSet
261 221 m 0
 261 336 344 461 499 461 c 0
 638 461 739 355 739 220 c 0
 739 84 633 -11 499 -11 c 0
 365 -11 261 84 261 221 c 0
339 231 m 0
 339 119 405 53 499 53 c 0
 579 53 660 106 660 231 c 0
 660 337 594 399 499 399 c 0
 422 399 339 352 339 231 c 0
EndSplineSet
EndChar
StartChar: p
Encoding: 112 112 51
Width: 1000
Flags: W
LayerCount: 2
Fore
SplineSet
240 -195 m 1
 240 445 l 1
 315 445 l 1
 315 396 l 1
 347 414 380 426 412 435 c 0
 474 452 525 449 558 448 c 0
 627 446 683 421 711 379 c 0
 739 336 760 285 760 224 c 0
 760 157 738 94 700 50 c 0
 662 13 596 -11 520 -11 c 0
 466 -11 421 -1 382 14 c 0
 358 23 338 34 318 46 c 1
 318 -195 l 1
 240 -195 l 1
318 126 m 2
 318 112 337 89 370 72 c 0
 394 60 426 50 464 50 c 0
 518 50 586 56 628 88 c 0
 667 118 681 171 681 222 c 0
 681 233 680 244 678 254 c 0
 669 291 658 335 624 360 c 0
 590 385 531 391 477 391 c 0
 433 391 400 381 374 370 c 0
 338 354 320 334 318 334 c 1
 318 126 l 2
EndSplineSet
EndChar
StartChar: q
Encoding: 113 113 52
Width: 1000
Flags: W
LayerCount: 2
Fore
SplineSet
239 221 m 0
 239 352 323 455 479 455 c 0
 577 455 641 421 685 388 c 1
 685 455 l 1
 761 455 l 1xf4
 761 -195 l 1
 680 -195 l 1
 680 50 l 1xf8
 622 14 544 -11 454 -11 c 0
 390 -11 332 10 298 44 c 0
 262 87 239 150 239 221 c 0
317 221 m 0
 317 170 333 111 377 80 c 4
 413 55 470 51 521 51 c 0
 602 51 685 95 685 138 c 2
 685 285 l 2
 685 314 643 392 535 392 c 0xf4
 483 392 405 382 360 342 c 0
 328 314 317 267 317 221 c 0
EndSplineSet
EndChar
StartChar: r
Encoding: 114 114 53
Width: 1000
Flags: W
LayerCount: 2
Fore
SplineSet
378 0 m 1xd0
 378 450 l 1
 448 450 l 1
 448 404 l 5
 448 360 l 1xe0
 465 384 516 454 622 455 c 1
 622 388 l 1
 564 386 452 351 452 206 c 2xd0
 452 0 l 1
 378 0 l 1xd0
EndSplineSet
EndChar
StartChar: s
Encoding: 115 115 54
Width: 1000
Flags: W
LayerCount: 2
Fore
SplineSet
300 34 m 1
 312 102 l 1
 355 77 402 52 514 52 c 0
 611 52 630 93 630 120 c 0
 630 159 594 178 570 184 c 0
 537 191 472 196 426 206 c 0
 386 214 350 232 328 260 c 0
 314 278 306 301 306 329 c 0
 306 363 316 407 360 435 c 4
 390 451 442 461 516 461 c 0
 594 461 630 453 684 430 c 1
 672 364 l 1
 632 383 600 401 502 401 c 0
 398 401 376 364 376 340 c 0
 376 267 545 278 614 252 c 0
 655 233 700 192 700 127 c 0
 700 93 689 49 650 20 c 0
 625 1 590 -11 516 -11 c 0
 465 -11 375 -7 300 34 c 1
EndSplineSet
EndChar
StartChar: t
Encoding: 116 116 55
Width: 1000
Flags: W
LayerCount: 2
Fore
SplineSet
343 386 m 1
 343 445 l 1
 429 445 l 1
 429 571 l 1
 499 571 l 1
 499 445 l 1
 640 445 l 1
 640 386 l 1
 499 386 l 1
 499 140 l 2
 499 117 501 86 517 68 c 4
 525 59 536 53 553 53 c 0
 600 53 630 80 641 86 c 1
 657 27 l 1
 605 -1 553 -11 509 -11 c 0
 492 -11 471 -6 454 14 c 0
 439 33 427 64 427 117 c 2
 427 386 l 1
 343 386 l 1
EndSplineSet
EndChar
StartChar: u
Encoding: 117 117 56
Width: 1000
Flags: W
LayerCount: 2
Fore
SplineSet
272 122 m 2
 272 445 l 1
 350 445 l 1
 350 110 l 2
 352 88 356 71 374 60 c 0
 392 50 420 45 470 45 c 0
 522 45 562 56 592 72 c 0
 625 90 644 114 648 136 c 0
 650 146 650 156 650 165 c 2
 650 445 l 1
 728 445 l 1
 728 0 l 1
 652 0 l 1
 652 28 l 1
 652 48 l 5
 627 30 610 17 574 8 c 4
 520 -6 438 -11 390 -11 c 0
 342 -11 318 -2 302 12 c 0
 271 40 272 87 272 122 c 2
EndSplineSet
EndChar
StartChar: v
Encoding: 118 118 57
Width: 1000
Flags: W
LayerCount: 2
Fore
SplineSet
236 445 m 1
 313 445 l 1
 431 201 l 2
 469 97 475 81 480 50 c 1
 489 116 677 406 690 445 c 1
 764 445 l 1
 522 0 l 1
 434 0 l 1
 236 445 l 1
EndSplineSet
EndChar
StartChar: w
Encoding: 119 119 58
Width: 1000
Flags: W
LayerCount: 2
Fore
SplineSet
119 445 m 1
 194 445 l 1
 298 114 295 90 302 50 c 1
 305 125 438 427 444 445 c 1
 551 445 l 1
 659 201 l 2
 689 96 693 81 697 50 c 1
 703 116 801 419 808 445 c 1
 881 445 l 1
 743 0 l 1
 656 0 l 1
 488 372 511 328 495 394 c 1
 489 315 344 24 336 0 c 1
 257 0 l 1
 119 445 l 1
EndSplineSet
EndChar
StartChar: x
Encoding: 120 120 59
Width: 1000
Flags: W
LayerCount: 2
Fore
SplineSet
196 0 m 1
 446 228 l 1
 446 230 l 1
 202 445 l 1
 288 445 l 1
 496 280 l 1
 497 280 l 1
 696 445 l 1
 788 445 l 1
 545 230 l 1
 545 229 l 1
 804 0 l 1
 720 0 l 1
 496 188 l 1
 280 0 l 1
 196 0 l 1
EndSplineSet
EndChar
StartChar: y
Encoding: 121 121 60
Width: 1000
Flags: W
LayerCount: 2
Fore
SplineSet
236 445 m 1
 315 445 l 1
 521 98 494 105 512 50 c 1
 515 141 684 427 689 445 c 1
 764 445 l 1
 498 -90 l 2
 465 -140 438 -169 408 -186 c 4
 382 -200 358 -205 336 -205 c 0
 317 -205 287 -203 263 -197 c 1
 258 -132 l 1
 291 -143 314 -149 331 -149 c 0
 345 -149 356 -145 371 -135 c 0
 397 -118 419 -83 458 -15 c 0
 462 -8 464 -3 464 1 c 0
 464 6 460 10 456 18 c 2
 236 445 l 1
EndSplineSet
EndChar
StartChar: z
Encoding: 122 122 61
Width: 1000
Flags: W
LayerCount: 2
Fore
SplineSet
280 0 m 1
 280 41 l 1
 612 386 l 1
 294 385 l 1
 294 445 l 1
 718 445 l 1
 718 405 l 1
 386 62 l 1
 720 63 l 5
 720 0 l 1
 280 0 l 1
EndSplineSet
EndChar
StartChar: braceleft
Encoding: 123 123 91
Width: 1000
Flags: MW
LayerCount: 2
Fore
SplineSet
554 219 m 1
 554 281 l 1
 615 281 684 306 706 363 c 0
 709 371 711 380 712 389 c 2
 712 619 l 2
 713 641 711 653 722 674 c 0
 736 703 763 723 798 735 c 0
 826 745 860 750 895 750 c 2
 948 750 l 1
 948 689 l 1
 924 689 l 2
 794 689 790 655 790 621 c 2
 790 410 l 2
 790 387 786 367 780 350 c 0
 752 275 670 255 629 251 c 9
 629 250 l 17
 672 247 760 225 784 138 c 0
 788 124 790 108 790 90 c 2
 790 -125 l 2
 790 -163 809 -189 924 -189 c 0
 948 -189 l 1
 948 -250 l 1
 903 -250 l 2
 867 -250 827 -249 784 -229 c 0
 703 -192 714 -133 712 -119 c 1
 712 88 l 2
 712 109 712 121 705 140 c 0
 682 192 618 219 554 219 c 1
EndSplineSet
EndChar
StartChar: bar
Encoding: 124 124 92
Width: 1000
Flags: MW
LayerCount: 2
Fore
SplineSet
480 -220 m 2
 480 720 l 2
 480 733 483 740 487 744 c 0
 491 748 496 749 500 749 c 0
 508 749 512 746 515 741 c 0
 520 734 520 724 520 720 c 2
 520 -220 l 2
 520 -231 518 -238 515 -242 c 4
 511 -248 505 -249 500 -249 c 0
 492 -249 488 -246 485 -242 c 0
 481 -236 480 -227 480 -220 c 2
EndSplineSet
EndChar
StartChar: asciitilde
Encoding: 126 126 94
Width: 1000
Flags: MW
LayerCount: 2
Fore
SplineSet
278 557 m 1xb0
 281 632 340 676 405 676 c 0x70
 473 676 530 619 594 619 c 0xb0
 628 619 657 638 661 676 c 1
 722 676 l 1x70
 719 602 660 557 595 557 c 0xb0
 527 557 470 615 406 615 c 0x70
 372 615 343 595 339 557 c 1
 278 557 l 1xb0
EndSplineSet
EndChar
StartChar: cent
Encoding: 162 162 95
Width: 1000
Flags: MW
LayerCount: 2
Fore
SplineSet
282 222 m 0
 282 330 359 441 494 459 c 1
 494 547 l 1
 553 547 l 1
 553 460 l 1
 617 458 647 449 712 417 c 1
 701 351 l 1
 652 376 628 392 553 396 c 1
 553 54 l 1
 618 60 655 74 712 107 c 1
 718 40 l 1
 666 11 620 -5 553 -10 c 1
 553 -97 l 1
 494 -97 l 1
 494 -9 l 1
 377 5 282 100 282 222 c 0
362 197 m 4
 372 122 423 69 494 56 c 1
 494 394 l 1
 398 377 360 295 360 223 c 0
 360 214 361 205 362 197 c 4
EndSplineSet
EndChar
StartChar: sterling
Encoding: 163 163 96
Width: 1000
Flags: W
LayerCount: 2
Fore
SplineSet
144 58 m 0
 144 110 202 145 276 145 c 0
 306 145 330 142 352 138 c 1
 355 156 358 174 358 194 c 2
 358 332 l 1
 255 332 l 1
 255 390 l 1
 358 390 l 1
 358 528 l 2
 358 612 396 670 447 707 c 0
 501 747 568 763 624 763 c 0
 796 763 828 604 828 549 c 0
 828 512 805 507 793 507 c 0
 760 507 750 541 750 541 c 1
 750 541 l 1xfc
 750 548 749 555 749 562 c 0
 743 678 675 702 625 702 c 0
 595 702 547 695 511 671 c 0
 486 654 466 628 455 590 c 0
 450 573 448 555 448 533 c 2
 448 390 l 1
 625 390 l 1
 625 332 l 1
 448 332 l 1
 448 193 l 2
 448 162 444 144 428 112 c 1
 458 105 609 50 695 50 c 0
 742 50 778 80 778 145 c 1
 856 145 l 1xfa
 853 48 779 -11 681 -11 c 0
 605 -11 538 5 364 51 c 1
 303 -10 245 -11 229 -11 c 0
 183 -11 144 17 144 58 c 0
219 61 m 0
 219 54 225 51 233 51 c 0
 264 51 304 76 304 76 c 1
 274 81 256 83 246 83 c 0xf8
 222 83 219 68 219 61 c 0
EndSplineSet
EndChar
StartChar: currency
Encoding: 164 164 131
Width: 1000
Flags: MW
LayerCount: 2
Fore
SplineSet
168 -29 m 0
 168 -27 168 -25 168 -22 c 1
 170 -16 175 -11 186 0 c 0
 200 15 226 40 276 90 c 1
 276 91 l 1
 224 149 202 222 202 286 c 0
 202 357 228 428 276 481 c 1
 276 482 l 1
 183 574 168 586 168 600 c 0
 168 607 175 618 186 618 c 2
 190 618 l 2
 198 618 199 614 304 510 c 1
 357 557 429 583 500 583 c 0
 564 583 636 561 694 510 c 1
 696 510 l 1
 794 608 l 2
 799 613 807 618 812 618 c 0
 819 618 832 614 832 596 c 0
 832 588 829 586 724 481 c 1
 771 427 796 357 796 286 c 0
 796 204 766 141 724 90 c 1
 823 -8 832 -14 832 -28 c 0
 833 -36 827 -38 826 -41 c 1
 819 -45 816 -47 814 -47 c 0
 812 -47 811 -46 808 -46 c 1
 796 -40 784 -26 696 62 c 1
 694 62 l 1
 641 15 571 -11 500 -11 c 0
 418 -11 354 20 304 62 c 1
 196 -46 200 -46 186 -46 c 0
 176 -46 168 -34 168 -29 c 0
242 286 m 0
 242 154 342 42 476 30 c 0
 484 29 492 29 500 29 c 0
 638 29 756 139 756 286 c 0
 756 425 644 543 500 543 c 0
 495 543 491 543 486 543 c 0
 353 535 242 426 242 286 c 0
EndSplineSet
EndChar
StartChar: yen
Encoding: 165 165 97
Width: 1000
Flags: MW
LayerCount: 2
Fore
SplineSet
140 189 m 0
 140 200 143 206 148 211 c 0
 157 219 172 220 180 220 c 2
 456 220 l 1
 456 278 l 1
 402 358 l 1
 182 358 l 2
 178 358 173 358 168 359 c 0
 161 360 153 362 148 366 c 0
 143 370 140 377 140 388 c 0
 140 396 141 406 150 412 c 0
 156 416 166 419 180 419 c 2
 188 419 l 2
 190 419 194 419 196 420 c 1
 360 420 l 1
 170 694 l 1
 276 694 l 1
 462 420 l 1
 554 420 l 1
 742 694 l 1
 830 694 l 1
 642 420 l 1
 820 420 l 2
 827 420 831 419 836 418 c 0
 856 413 860 399 860 388 c 0
 860 369 848 362 836 359 c 0
 830 358 823 358 818 358 c 2
 600 358 l 1
 544 278 l 1
 544 220 l 1
 816 220 l 2
 823 220 831 220 838 218 c 0
 851 214 860 202 860 189 c 0
 860 175 851 163 838 160 c 0
 831 158 825 158 818 158 c 2
 544 158 l 1
 544 0 l 1
 456 0 l 1
 456 158 l 1
 182 158 l 2
 179 158 175 158 172 158 c 0
 168 158 165 159 162 160 c 0
 157 161 154 164 150 167 c 0
 144 172 140 180 140 189 c 0
504 358 m 1
 508 348 l 1
 514 358 l 1
 504 358 l 1
EndSplineSet
EndChar
StartChar: brokenbar
Encoding: 166 166 98
Width: 1000
Flags: MW
LayerCount: 2
Fore
SplineSet
480 141 m 2
 480 165 492 169 500 169 c 0
 521 169 520 142 520 142 c 1
 520 -221 l 2
 520 -245 508 -249 500 -249 c 0
 479 -249 480 -222 480 -222 c 1
 480 141 l 2
480 358 m 1
 480 721 l 2
 480 744 492 749 500 749 c 0
 521 749 520 723 520 722 c 2
 520 360 l 2
 520 335 508 331 500 331 c 0
 479 331 480 358 480 358 c 1
EndSplineSet
EndChar
StartChar: section
Encoding: 167 167 99
Width: 1000
Flags: W
LayerCount: 2
Fore
SplineSet
298 -133 m 1
 310 -65 l 1
 331 -88 374 -144 506 -144 c 0
 600 -144 623 -74 623 -36 c 0
 623 48 506 75 480 83 c 0
 440 98 323 158 323 271 c 0
 323 316 338 349 354 373 c 0
 374 401 396 415 396 415 c 1
 396 417 l 17
 361 451 323 497 323 563 c 0
 323 644 379 733 516 733 c 0
 620 733 660 710 699 675 c 1
 693 638 l 1
 687 609 l 1
 673 624 633 672 519 672 c 0
 426 672 402 602 402 564 c 0
 402 526 428 499 456 481 c 0
 490 459 531 449 545 445 c 0
 585 430 702 370 702 257 c 0
 702 215 689 183 674 159 c 0
 662 140 649 127 629 112 c 1
 629 110 l 17
 664 77 702 33 702 -35 c 0
 702 -119 646 -205 506 -205 c 0
 390 -205 340 -173 298 -133 c 1
402 272 m 0
 402 238 422 213 446 195 c 0
 485 165 539 154 545 154 c 0
 577 154 623 197 623 256 c 0
 623 297 595 325 563 343 c 0
 527 365 486 373 480 373 c 0
 448 373 402 330 402 272 c 0
EndSplineSet
EndChar
StartChar: dieresis
Encoding: 168 168 100
Width: 1000
Flags: MW
LayerCount: 2
Fore
SplineSet
358 571 m 5
 358 660 l 5
 448 660 l 5
 448 571 l 5
 358 571 l 5
552 571 m 5
 552 660 l 5
 642 660 l 5
 642 571 l 5
 552 571 l 5
EndSplineSet
EndChar
StartChar: plusminus
Encoding: 177 177 103
Width: 1000
Flags: MW
LayerCount: 2
Fore
SplineSet
168 19 m 0
 168 31 174 40 194 40 c 2
 480 40 l 1
 480 313 l 1
 198 313 l 2
 182 313 168 316 168 333 c 0
 168 350 181 353 196 353 c 2
 480 353 l 1
 480 635 l 2
 480 651 482 665 500 665 c 0
 518 665 520 652 520 636 c 2
 520 353 l 1
 802 353 l 2
 817 353 832 349 832 333 c 0
 832 316 817 313 802 313 c 2
 520 313 l 1
 520 40 l 1
 806 40 l 2
 813 40 818 38 822 36 c 0
 828 32 832 28 832 20 c 0
 832 13 828 8 824 5 c 0
 818 0 809 0 804 0 c 2
 196 0 l 2
 170 0 168 14 168 19 c 0
EndSplineSet
EndChar
StartChar: acute
Encoding: 180 180 104
Width: 1000
Flags: MW
LayerCount: 2
Fore
SplineSet
394 510 m 1
 528 640 l 1
 606 640 l 1
 456 510 l 1
 394 510 l 1
EndSplineSet
EndChar
StartChar: paragraph
Encoding: 182 182 105
Width: 1000
Flags: MW
LayerCount: 2
Fore
SplineSet
236 484 m 0
 236 601 329 707 458 721 c 0
 472 722 486 722 500 722 c 2
 732 722 l 2
 749 722 764 718 764 702 c 0xe8
 764 698 762 691 756 687 c 0
 752 684 746 682 738 682 c 2
 680 682 l 1
 680 -165 l 2
 680 -169 681 -173 680 -176 c 0
 677 -191 667 -194 660 -194 c 0
 648 -194 644 -186 642 -178 c 0
 641 -174 640 -169 640 -165 c 2
 640 682 l 1
 572 682 l 1
 572 -161 l 2
 572 -170 571 -179 568 -185 c 0
 565 -190 560 -194 552 -194 c 0
 544 -194 539 -190 536 -186 c 0
 533 -182 532 -176 532 -165 c 2
 532 244 l 1xd8
 399 251 236 323 236 484 c 0
EndSplineSet
EndChar
StartChar: multiply
Encoding: 215 215 106
Width: 1000
Flags: MW
LayerCount: 2
Fore
SplineSet
260 28 m 0
 260 41 275 52 284 61 c 2
 472 250 l 1
 282 439 l 2
 272 449 270 452 260 467 c 1
 260 473 l 2
 260 478 265 486 272 489 c 0
 274 490 275 490 278 490 c 0
 290 490 298 480 308 470 c 2
 500 278 l 1
 692 471 l 2
 702 480 710 490 722 490 c 0
 737 490 740 476 740 472 c 0
 740 470 740 469 740 466 c 1
 735 455 726 447 718 439 c 2
 528 250 l 1
 718 61 l 2
 730 49 738 40 740 33 c 1
 740 27 l 1
 740 18 732 10 722 10 c 0
 710 10 701 20 692 30 c 2
 500 222 l 1
 300 21 l 2
 290 13 287 9 278 9 c 0
 270 9 260 19 260 28 c 0
EndSplineSet
EndChar
StartChar: divide
Encoding: 247 247 107
Width: 1000
Flags: MW
LayerCount: 2
Fore
SplineSet
168 251 m 0
 168 268 184 270 197 270 c 2
 796 270 l 2
 805 270 816 270 823 266 c 0
 828 263 832 259 832 250 c 0
 832 242 829 237 824 234 c 0
 817 230 808 230 804 230 c 2
 195 230 l 2
 171 230 168 244 168 251 c 0
438 -6 m 2
 438 61 l 2
 438 80 447 89 465 89 c 2
 530 89 l 2
 560 89 562 77 562 59 c 2
 562 -2 l 2
 562 -19 555 -34 533 -34 c 2
 468 -34 l 2
 441 -34 438 -20 438 -6 c 2
438 439 m 2
 438 506 l 2
 438 525 447 534 465 534 c 2
 530 534 l 2
 547 534 562 533 562 506 c 2
 562 440 l 2
 562 418 554 411 534 411 c 2
 468 411 l 2
 452 411 438 420 438 439 c 2
EndSplineSet
EndChar
StartChar: quoteleft
Encoding: 8216 8216 108
Width: 1000
Flags: MW
LayerCount: 2
Fore
SplineSet
820 486 m 1
 820 555 l 1
 821 570 l 1
 862 695 l 1
 904 695 l 1
 878 570 l 1
 904 570 l 1
 904 486 l 1
 820 486 l 1
EndSplineSet
EndChar
StartChar: quoteright
Encoding: 8217 8217 109
Width: 1000
Flags: MW
LayerCount: 2
Fore
SplineSet
96 639 m 1
 96 723 l 1
 180 723 l 1
 180 653 l 1
 179 639 l 1
 138 514 l 1
 96 514 l 1
 122 639 l 1
 96 639 l 1
EndSplineSet
EndChar
StartChar: quotedblleft
Encoding: 8220 8220 110
Width: 1000
Flags: MW
LayerCount: 2
Fore
SplineSet
897 514 m 1
 897 583 l 1
 898 598 l 1
 939 723 l 1
 981 723 l 1
 955 598 l 1
 981 598 l 1
 981 514 l 1
 897 514 l 1
686 514 m 1
 686 583 l 1
 687 598 l 1
 728 723 l 1
 770 723 l 1
 744 598 l 1
 770 598 l 1
 770 514 l 1
 686 514 l 1
EndSplineSet
EndChar
StartChar: dagger
Encoding: 8224 8224 112
Width: 1000
Flags: MW
LayerCount: 2
Fore
SplineSet
334 444 m 0
 334 458 343 483 376 483 c 0
 412 483 432 475 476 470 c 1
 467 600 462 644 462 687 c 0
 462 727 487 733 500 733 c 0
 515 733 540 725 540 688 c 0
 540 660 524 470 524 470 c 1
 557 473 598 484 624 484 c 0
 658 484 666 458 666 445 c 0
 666 430 658 405 624 405 c 0
 604 405 534 418 524 419 c 1
 530 356 540 297 540 229 c 2
 540 -217 l 1
 462 -217 l 1
 462 239 l 2
 462 269 463 304 476 419 c 1
 443 414 391 405 376 405 c 0
 342 405 334 431 334 444 c 0
EndSplineSet
EndChar
StartChar: daggerdbl
Encoding: 8225 8225 113
Width: 1000
Flags: MW
LayerCount: 2
Fore
SplineSet
334 29 m 0
 334 44 342 68 376 68 c 0
 396 68 466 56 476 55 c 1
 472 124 462 178 462 213 c 0
 462 240 468 263 500 263 c 0
 513 263 540 257 540 218 c 0
 539 161 528 110 524 55 c 1
 557 60 608 68 624 68 c 0
 658 68 666 43 666 29 c 0
 666 15 658 -10 624 -10 c 0
 604 -10 534 3 524 4 c 1
 527 -33 540 -125 540 -161 c 0
 540 -199 512 -205 500 -205 c 0
 486 -205 462 -197 462 -160 c 0
 463 -103 473 -51 476 4 c 1
 443 -1 391 -10 376 -10 c 0
 342 -10 334 15 334 29 c 0
334 499 m 0
 334 512 342 538 376 538 c 0
 396 538 466 525 476 524 c 1
 474 561 462 653 462 689 c 0
 462 727 488 733 500 733 c 0
 515 733 540 725 540 688 c 0
 539 631 528 579 524 524 c 1
 557 529 608 538 624 538 c 0
 658 538 666 513 666 498 c 0
 666 485 658 459 624 459 c 0
 604 459 534 472 524 473 c 1
 527 436 540 345 540 308 c 0
 540 270 512 264 500 264 c 0
 486 264 462 272 462 310 c 0
 463 366 473 418 476 473 c 1
 443 468 391 459 376 459 c 0
 342 459 334 484 334 499 c 0
EndSplineSet
EndChar
StartChar: perthousand
Encoding: 8240 8240 118
Width: 1000
Flags: MW
LayerCount: 2
Fore
SplineSet
22 556 m 0
 22 648 72 750 162 750 c 0
 247 750 300 653 300 555 c 0
 300 462 250 361 162 361 c 0
 76 361 22 460 22 556 c 0
98 556 m 0
 98 471 123 423 166 423 c 3
 210 423 230 498 230 556 c 0
 230 615 211 689 162 689 c 0
 113 689 98 618 98 556 c 0
94 -7 m 0
 94 1 100 11 102 13 c 1
 538 737 l 2
 541 742 547 749 556 749 c 0
 566 749 576 741 576 730 c 0
 576 721 568 710 564 702 c 2
 138 -5 l 2
 132 -14 127 -27 114 -27 c 0
 103 -27 94 -18 94 -7 c 0
366 167 m 0
 366 259 418 361 506 361 c 0
 595 361 644 260 644 166 c 0
 644 73 593 -28 506 -28 c 0
 421 -28 366 71 366 167 c 0
442 167 m 0
 442 89 464 34 510 34 c 3
 555 34 574 111 574 167 c 0
 574 227 555 300 506 300 c 0
 457 300 442 230 442 167 c 0
700 167 m 0
 700 273 762 361 840 361 c 0
 904 361 978 291 978 166 c 0
 978 58 915 -28 840 -28 c 0
 771 -28 700 49 700 167 c 0
774 167 m 0
 774 78 803 34 842 34 c 3
 876 34 908 89 908 167 c 0
 908 249 874 300 840 300 c 0
 798 300 774 252 774 167 c 0
EndSplineSet
EndChar
StartChar: overline
Encoding: 8254 8254 114
Width: 1000
Flags: MW
LayerCount: 2
Fore
SplineSet
100 789 m 0
 100 811 123 809 134 809 c 2
 867 809 l 2
 878 809 900 811 900 789 c 0
 900 781 896 769 872 769 c 2
 134 769 l 2
 121 769 100 769 100 789 c 0
EndSplineSet
EndChar
StartChar: asterism
Encoding: 8258 8258 133
Width: 1000
Flags: MW
LayerCount: 2
Fore
SplineSet
564 -45 m 0
 564 -24 581 -15 592 -10 c 2
 700 47 l 1
 700 48 l 1
 577 113 564 114 564 140 c 0
 564 159 581 175 600 175 c 0
 616 175 629 161 724 96 c 1
 721 141 716 228 716 233 c 0
 716 262 738 270 750 270 c 0
 760 270 784 263 784 236 c 0
 784 226 782 200 776 96 c 1
 881 169 888 175 900 175 c 0
 922 175 936 158 936 140 c 0
 936 119 918 111 908 105 c 2
 800 48 l 1
 800 47 l 1
 923 -18 936 -19 936 -45 c 0
 936 -64 919 -80 900 -80 c 0
 882 -80 875 -68 776 0 c 1
 779 -46 784 -133 784 -137 c 0
 784 -167 762 -174 750 -174 c 0
 731 -174 716 -159 716 -141 c 0
 716 -133 718 -109 724 0 c 1
 620 -73 613 -80 600 -80 c 0
 579 -80 564 -62 564 -45 c 0
64 -45 m 0
 64 -24 81 -15 92 -10 c 2
 200 47 l 1
 200 48 l 1
 77 113 64 114 64 140 c 0
 64 159 81 175 100 175 c 0
 116 175 129 161 224 96 c 1
 221 141 216 228 216 233 c 0
 216 262 238 270 250 270 c 0
 260 270 284 263 284 236 c 0
 284 226 282 200 276 96 c 1
 381 169 388 175 400 175 c 0
 422 175 436 158 436 140 c 0
 436 119 418 111 408 105 c 2
 300 48 l 1
 300 47 l 1
 423 -18 436 -19 436 -45 c 0
 436 -64 419 -80 400 -80 c 0
 382 -80 375 -68 276 0 c 1
 279 -46 284 -133 284 -137 c 0
 284 -167 262 -174 250 -174 c 0
 231 -174 216 -159 216 -141 c 0
 216 -133 218 -109 224 0 c 1
 120 -73 113 -80 100 -80 c 0
 79 -80 64 -62 64 -45 c 0
314 435 m 0
 314 456 331 465 342 470 c 2
 450 527 l 1
 450 528 l 1
 327 593 314 594 314 620 c 0
 314 639 331 655 350 655 c 0
 366 655 379 641 474 576 c 1
 471 621 466 708 466 713 c 0
 466 742 488 750 500 750 c 0
 510 750 534 743 534 716 c 0
 534 706 532 680 526 576 c 1
 631 649 638 655 650 655 c 0
 672 655 686 638 686 620 c 0
 686 599 668 591 658 585 c 2
 550 528 l 1
 550 527 l 1
 673 462 686 461 686 435 c 0
 686 416 669 400 650 400 c 0
 632 400 625 412 526 480 c 1
 529 434 534 347 534 343 c 0
 534 313 512 306 500 306 c 0
 481 306 466 321 466 339 c 0
 466 347 468 371 474 480 c 1
 370 407 363 400 350 400 c 0
 329 400 314 418 314 435 c 0
EndSplineSet
EndChar
StartChar: questiondbl
Encoding: 8263 8263 129
Width: 1000
Flags: MW
LayerCount: 2
Fore
SplineSet
84 677 m 1
 123 705 172 730 238 733 c 4
 242 733 248 733 252 733 c 0
 411 733 444 636 444 571 c 0
 444 484 392 450 376 434 c 0
 282 343 284 246 284 215 c 2
 284 175 l 1
 216 175 l 1
 216 207 l 2
 216 414 321 476 346 508 c 0
 350 513 366 534 366 572 c 0
 366 652 311 672 254 672 c 0xd8
 184 672 139 642 106 614 c 1
 84 677 l 1
208 0 m 1
 208 84 l 1
 292 84 l 1
 292 0 l 1
 208 0 l 1
556 677 m 1
 595 705 644 730 710 733 c 4
 714 733 720 733 724 733 c 0
 883 733 916 636 916 571 c 0
 916 484 864 450 848 434 c 0
 754 343 756 246 756 215 c 2
 756 175 l 1
 688 175 l 1
 688 207 l 2
 688 414 793 476 818 508 c 0
 822 513 838 534 838 572 c 0
 838 652 783 672 726 672 c 0xd8
 656 672 611 642 578 614 c 1
 556 677 l 1
680 0 m 1
 680 84 l 1
 764 84 l 1
 764 0 l 1
 680 0 l 1
EndSplineSet
EndChar
StartChar: questionexclam
Encoding: 8264 8264 130
Width: 1000
VWidth: 0
Flags: MW
LayerCount: 2
Fore
SplineSet
191 677 m 1
 230 705 280 730 346 733 c 4
 350 733 355 733 359 733 c 0
 518 733 552 636 552 571 c 0
 552 484 499 450 483 434 c 0
 389 343 391 246 391 215 c 2
 391 175 l 1
 324 175 l 1
 324 207 l 2
 324 414 429 476 454 508 c 0
 458 513 474 534 474 572 c 0
 474 652 418 672 361 672 c 0xd8
 291 672 247 642 214 614 c 1
 191 677 l 1
316 0 m 1
 316 84 l 1
 400 84 l 1
 400 0 l 1
 316 0 l 1
725 722 m 1xe0
 809 722 l 1xe0
 800 175 l 1
 733 175 l 1xd0
 726 671 l 1
 725 722 l 1xe0
725 0 m 1
 725 84 l 1
 809 84 l 1
 809 0 l 1
 725 0 l 1
EndSplineSet
EndChar
StartChar: asteriskdbl
Encoding: 8273 8273 132
Width: 1000
Flags: MW
LayerCount: 2
Fore
SplineSet
314 -45 m 0
 314 -24 331 -15 342 -10 c 2
 450 47 l 1
 450 48 l 1
 327 113 314 114 314 140 c 0
 314 159 331 175 350 175 c 0
 366 175 379 161 474 96 c 1
 471 141 466 228 466 233 c 0
 466 262 488 270 500 270 c 0
 510 270 534 263 534 236 c 0
 534 226 532 200 526 96 c 1
 631 169 638 175 650 175 c 0
 672 175 686 158 686 140 c 0
 686 119 668 111 658 105 c 2
 550 48 l 1
 550 47 l 1
 673 -18 686 -19 686 -45 c 0
 686 -64 669 -80 650 -80 c 0
 632 -80 625 -68 526 0 c 1
 529 -46 534 -133 534 -137 c 0
 534 -167 512 -174 500 -174 c 0
 481 -174 466 -159 466 -141 c 0
 466 -133 468 -109 474 0 c 1
 370 -73 363 -80 350 -80 c 0
 329 -80 314 -62 314 -45 c 0
314 435 m 0
 314 456 331 465 342 470 c 2
 450 527 l 1
 450 528 l 1
 327 593 314 594 314 620 c 0
 314 639 331 655 350 655 c 0
 366 655 379 641 474 576 c 1
 471 621 466 708 466 713 c 0
 466 742 488 750 500 750 c 0
 510 750 534 743 534 716 c 0
 534 706 532 680 526 576 c 1
 631 649 638 655 650 655 c 0
 672 655 686 638 686 620 c 0
 686 599 668 591 658 585 c 2
 550 528 l 1
 550 527 l 1
 673 462 686 461 686 435 c 0
 686 416 669 400 650 400 c 0
 632 400 625 412 526 480 c 1
 529 434 534 347 534 343 c 0
 534 313 512 306 500 306 c 0
 481 306 466 321 466 339 c 0
 466 347 468 371 474 480 c 1
 370 407 363 400 350 400 c 0
 329 400 314 418 314 435 c 0
EndSplineSet
EndChar
StartChar: euro
Encoding: 8364 8364 127
Width: 1000
Flags: MW
LayerCount: 2
Fore
SplineSet
156 256 m 1
 188 328 l 1
 264 328 l 1
 264 328 262 339 262 347 c 24
 262 355 264 366 264 366 c 1
 156 366 l 1
 188 438 l 1
 276 438 l 1
 307 561 428 694 610 694 c 0
 710 694 785 654 844 601 c 1
 812 529 l 1
 760 583 688 616 610 616 c 0
 538 616 411 582 356 438 c 1
 772 438 l 1
 740 366 l 1
 342 366 l 1
 342 366 340 355 340 347 c 24
 340 339 342 328 342 328 c 1
 724 328 l 1
 692 256 l 1
 356 256 l 1
 397 150 493 78 612 78 c 0
 756 78 840 168 844 168 c 1
 844 90 l 1
 785 38 708 0 610 0 c 0
 437 0 310 124 276 256 c 1
 156 256 l 1
EndSplineSet
EndChar
StartChar: celsius
Encoding: 8451 8451 119
Width: 1000
Flags: MW
LayerCount: 2
Fore
SplineSet
102 583 m 0
 102 644 152 694 213 694 c 0
 277 694 324 642 324 584 c 0
 324 522 274 472 213 472 c 0
 149 472 102 525 102 583 c 0
142 583 m 0
 142 547 171 513 213 513 c 0
 251 513 283 542 283 583 c 0
 283 624 250 654 213 654 c 0xde
 175 654 142 624 142 583 c 0
EndSplineSet
Refer: 12 67 N 1 0 0 1 106 0 2
EndChar
StartChar: mho
Encoding: 8487 8487 128
Width: 1000
Flags: MW
LayerCount: 2
Fore
SplineSet
184 623 m 1
 184 694 l 1
 428 694 l 1
 426 524 284 395 284 233 c 0
 284 117 384 39 500 39 c 0
 616 39 716 117 716 233 c 0
 716 395 574 525 572 694 c 1
 816 694 l 1
 816 623 l 1
 752 624 l 1
 642 624 l 1
 682 484 806 375 806 232 c 0
 806 95 674 -22 500 -22 c 0
 340 -22 194 83 194 232 c 0
 194 377 316 479 358 624 c 1
 248 624 l 1
 184 623 l 1
EndSplineSet
EndChar
StartChar: angstrom
Encoding: 8491 8491 120
Width: 1000
Flags: MW
LayerCount: 2
Fore
SplineSet
381 777 m 0
 381 842 435 888 492 888 c 0
 556 888 603 836 603 777 c 0
 603 720 558 666 492 666 c 0
 427 666 381 719 381 777 c 0
437 777 m 0
 437 764 441 749 452 739 c 0
 460 732 471 728 488 727 c 0
 489 727 491 727 492 727 c 0
 513 727 527 733 535 742 c 0
 544 752 547 765 547 777 c 0
 547 789 544 803 534 813 c 0
 526 821 513 827 493 827 c 0xdf
 492 827 490 827 489 827 c 0
 468 826 455 819 447 809 c 0
 440 800 437 788 437 777 c 0
EndSplineSet
Refer: 10 65 N 1 0 0 1 0 0 2
EndChar
StartChar: aleph
Encoding: 8501 8501 264
Width: 1000
Flags: W
LayerCount: 2
Fore
SplineSet
698 694 m 1
 776 694 l 1
 717 476 l 2
 689 371 653 297 610 255 c 1
 794 0 l 1
 705 0 l 1
 426 388 l 1
 410 377 395 358 383 332 c 128
 371 306 356 266 340 210 c 2
 283 0 l 1
 206 0 l 1
 264 218 l 2
 294 332 333 409 381 450 c 1
 206 694 l 1
 295 694 l 1
 566 317 l 1
 592 341 617 398 641 484 c 2
 698 694 l 1
EndSplineSet
Colour: ff
EndChar
StartChar: arrowdblright
Encoding: 8658 8658 267
Width: 1000
Flags: W
LayerCount: 2
Fore
SplineSet
56 174 m 0
 56 191 70 195 84 195 c 2
 798 195 l 1
 819 217 841 235 863 250 c 1
 843 266 822 283 800 305 c 1
 90 305 l 2
 75 305 56 305 56 324 c 0
 56 341 70 345 84 345 c 2
 766 345 l 1
 732 391 703 455 693 550 c 1
 733 550 l 1
 752 393 838 298 943 250 c 1
 835 199 752 108 732 -50 c 1
 692 -50 l 1
 703 39 731 105 766 155 c 1
 90 155 l 2
 75 155 56 155 56 174 c 0
EndSplineSet
EndChar
StartChar: universal
Encoding: 8704 8704 226
Width: 1000
Flags: W
LayerCount: 2
Fore
SplineSet
192 524 m 0
 192 542 207 555 222 555 c 0
 244 555 252 534 259 520 c 2
 329 381 l 1
 671 381 l 1
 741 520 l 2
 748 534 756 555 778 555 c 0
 793 555 808 542 808 524 c 0
 808 513 798 497 792 485 c 2
 536 -22 l 2
 522 -50 508 -55 500 -55 c 0
 484 -55 479 -51 464 -22 c 2
 199 503 l 2
 195 510 192 517 192 524 c 0
360 320 m 1
 500 43 l 1
 509 60 520 83 531 104 c 2
 640 320 l 1
 360 320 l 1
EndSplineSet
EndChar
StartChar: partialdiff
Encoding: 8706 8706 230
Width: 1000
Flags: W
LayerCount: 2
Fore
SplineSet
272 177 m 0
 272 269 315 339 372 392 c 0
 418 434 477 461 538 461 c 0
 579 461 605 450 634 434 c 1
 595 559 512 642 396 677 c 1
 456 722 l 1
 607 676 728 540 728 337 c 0
 728 230 710 159 656 91 c 0
 604 27 527 -11 454 -11 c 0
 396 -11 346 14 312 56 c 0
 287 88 272 129 272 177 c 0
352 185 m 0
 352 143 364 109 386 86 c 0
 405 65 433 53 466 53 c 0
 503 53 538 67 566 92 c 0
 610 131 640 191 640 272 c 0
 640 315 627 349 602 372 c 0
 583 389 557 399 526 399 c 0
 494 399 456 387 424 360 c 0
 386 328 352 265 352 185 c 0
EndSplineSet
EndChar
StartChar: existential
Encoding: 8707 8707 227
Width: 1000
Flags: W
LayerCount: 2
Fore
SplineSet
218 13 m 0
 218 30 231 44 254 44 c 0
 257 44 261 43 264 43 c 2
 721 43 l 1
 721 224 l 1
 256 224 l 2
 233 224 218 237 218 255 c 0
 218 272 231 286 254 286 c 0
 257 286 261 285 264 285 c 2
 721 285 l 1
 721 494 l 1
 254 494 l 2
 230 494 218 507 218 524 c 0
 218 543 233 555 258 555 c 2
 742 555 l 2
 765 555 782 545 782 524 c 2
 782 13 l 2
 782 -7 767 -18 742 -18 c 2
 256 -18 l 2
 233 -18 218 -5 218 13 c 0
EndSplineSet
EndChar
StartChar: emptyset
Encoding: 8709 8709 252
Width: 1000
Flags: W
LayerCount: 2
Fore
SplineSet
198 250 m 0
 198 417 333 552 500 552 c 0
 572 552 639 526 691 484 c 1
 736 529 l 2
 745 538 753 544 764 544 c 0
 779 544 793 530 793 515 c 0
 793 504 788 496 777 485 c 2
 734 441 l 1
 777 389 802 323 802 250 c 0
 802 83 667 -52 500 -52 c 0
 427 -52 361 -27 309 16 c 1
 263 -30 l 2
 253 -39 246 -44 235 -44 c 0
 218 -44 205 -29 205 -13 c 0
 205 2 216 9 226 19 c 2
 266 59 l 1
 224 111 198 178 198 250 c 0
259 250 m 0
 259 195 277 144 309 103 c 1
 647 441 l 1
 606 473 555 491 500 491 c 0
 367 491 259 383 259 250 c 0
352 60 m 1
 393 28 444 9 500 9 c 0
 633 9 741 117 741 250 c 0
 741 306 722 357 690 398 c 1
 352 60 l 1
EndSplineSet
EndChar
StartChar: nabla
Encoding: 8711 8711 231
Width: 1000
Flags: W
LayerCount: 2
Fore
SplineSet
874 691 m 1
 546 -3 l 1
 454 -3 l 1
 126 691 l 1
 874 691 l 1
758 607 m 1
 264 607 l 2
 264 607 489 107 510 67 c 1
 758 607 l 1
EndSplineSet
EndChar
StartChar: element
Encoding: 8712 8712 212
Width: 1000
Flags: W
LayerCount: 2
Fore
SplineSet
195 250 m 0
 195 417 330 552 497 552 c 2
 765 552 l 2
 790 552 805 539 805 521 c 0
 805 503 790 491 768 491 c 2
 497 491 l 2
 374 491 273 399 258 280 c 1
 767 280 l 2
 778 280 787 277 793 274 c 0
 804 267 805 257 805 250 c 0
 805 243 804 234 795 227 c 0
 789 222 779 219 765 219 c 2
 258 219 l 1
 273 101 375 9 497 9 c 2
 767 9 l 2
 790 9 805 -4 805 -21 c 0
 805 -40 789 -52 764 -52 c 2
 497 -52 l 2
 330 -52 195 83 195 250 c 0
EndSplineSet
EndChar
StartChar: suchthat
Encoding: 8715 8715 213
Width: 1000
Flags: W
LayerCount: 2
Fore
SplineSet
195 -21 m 0
 195 -4 210 9 233 9 c 2
 503 9 l 2
 625 9 727 101 742 219 c 1
 233 219 l 2
 221 219 213 222 207 226 c 0
 197 233 195 243 195 250 c 0
 195 258 198 270 209 276 c 0
 214 279 221 281 231 281 c 0
 234 281 238 280 241 280 c 2
 742 280 l 1
 727 399 626 491 503 491 c 2
 232 491 l 2
 210 491 195 503 195 521 c 0
 195 539 210 552 235 552 c 2
 503 552 l 2
 670 552 805 417 805 250 c 0
 805 83 670 -52 503 -52 c 2
 236 -52 l 2
 211 -52 195 -40 195 -21 c 0
EndSplineSet
EndChar
StartChar: minus
Encoding: 8722 8722 117
Width: 1000
Flags: MW
LayerCount: 2
Fore
SplineSet
168 250 m 0
 168 262 174 281 208 281 c 2
 792 281 l 2
 827 281 832 260 832 250 c 0
 832 238 826 220 796 220 c 2
 204 220 l 2
 169 220 168 243 168 250 c 0
EndSplineSet
EndChar
StartChar: minusplus
Encoding: 8723 8723 244
Width: 1000
Flags: W
LayerCount: 2
Fore
SplineSet
168 546 m 0
 168 551 170 565 196 565 c 2
 804 565 l 2
 809 565 818 565 824 560 c 0
 828 557 832 552 832 545 c 0
 832 537 828 533 822 529 c 0
 818 527 813 525 806 525 c 2
 520 525 l 1
 520 252 l 1
 802 252 l 2
 817 252 832 249 832 232 c 0
 832 216 817 212 802 212 c 2
 520 212 l 1
 520 -71 l 2
 520 -87 518 -100 500 -100 c 0
 482 -100 480 -86 480 -70 c 2
 480 212 l 1
 196 212 l 2
 181 212 168 215 168 232 c 0
 168 249 182 252 198 252 c 2
 480 252 l 1
 480 525 l 1
 194 525 l 2
 174 525 168 534 168 546 c 0
EndSplineSet
EndChar
StartChar: proportional
Encoding: 8733 8733 258
Width: 1000
Flags: W
LayerCount: 2
Fore
SplineSet
238 250 m 0
 238 343 313 418 406 418 c 0
 463 418 514 390 544 346 c 1
 574 390 625 418 682 418 c 2
 732 418 l 2
 749 418 762 405 762 388 c 0
 762 371 749 358 732 358 c 2
 682 358 l 2
 622 358 574 310 574 250 c 0
 574 190 622 142 682 142 c 2
 732 142 l 2
 749 142 762 129 762 112 c 0
 762 95 749 82 732 82 c 2
 682 82 l 2
 625 82 574 110 544 154 c 1
 514 110 463 82 406 82 c 0
 313 82 238 157 238 250 c 0
298 250 m 0
 298 190 346 142 406 142 c 0
 466 142 514 190 514 250 c 0
 514 310 466 358 406 358 c 0
 346 358 298 310 298 250 c 0
EndSplineSet
EndChar
StartChar: infinity
Encoding: 8734 8734 210
Width: 1000
Flags: W
LayerCount: 2
Fore
SplineSet
136 328 m 0
 136 458 229 536 325 536 c 0xec
 385 536 457 485 488 397 c 1
 508 461 566 536 663 536 c 0
 768 536 864 446 864 328 c 0
 864 210 769 120 662 120 c 0xf2
 593 120 523 161 488 259 c 1
 465 181 390 120 326 120 c 0
 233 120 136 200 136 328 c 0
195 328 m 0xec
 195 255 254 190 326 190 c 0
 397 190 457 256 457 327 c 0
 457 400 396 466 326 466 c 0
 253 466 195 401 195 328 c 0xec
519 327 m 0
 519 252 577 201 661 201 c 0
 742 201 802 247 802 328 c 0
 802 405 746 455 660 455 c 0xf2
 578 455 519 407 519 327 c 0
EndSplineSet
EndChar
StartChar: orthogonal
Encoding: 8735 8735 245
Width: 1000
Flags: W
LayerCount: 2
Fore
SplineSet
218 -22 m 2
 218 517 l 2
 218 540 231 555 248 555 c 0
 267 555 279 539 279 514 c 2
 279 6 l 1
 744 6 l 2
 767 6 782 -7 782 -24 c 0
 782 -43 766 -55 741 -55 c 2
 249 -55 l 2
 232 -55 218 -41 218 -22 c 2
EndSplineSet
EndChar
StartChar: parallel
Encoding: 8741 8741 262
Width: 1000
Flags: W
LayerCount: 2
Fore
SplineSet
570 -38 m 2
 570 538 l 2
 570 563 575 583 600 583 c 0
 627 583 630 558 630 538 c 2
 630 -38 l 2
 630 -60 623 -83 600 -83 c 0
 572 -83 570 -61 570 -38 c 2
370 -38 m 2
 370 538 l 2
 370 563 375 583 400 583 c 0
 427 583 430 558 430 538 c 2
 430 -38 l 2
 430 -60 423 -83 400 -83 c 0
 372 -83 370 -61 370 -38 c 2
EndSplineSet
EndChar
StartChar: notparallel
Encoding: 8742 8742 263
Width: 1000
Flags: W
LayerCount: 2
Fore
SplineSet
166 76 m 0
 166 90 180 99 195 108 c 2
 370 209 l 1
 370 538 l 2
 370 563 375 583 400 583 c 0
 427 583 430 558 430 538 c 2
 430 244 l 1
 570 325 l 1
 570 538 l 2
 570 563 575 583 600 583 c 0
 627 583 630 558 630 538 c 2
 630 359 l 1
 776 443 l 2
 787 449 798 454 807 454 c 0
 819 454 834 441 834 425 c 0
 834 410 819 399 806 391 c 2
 630 290 l 1
 630 -38 l 2
 630 -60 623 -83 600 -83 c 0
 572 -83 570 -61 570 -38 c 2
 570 255 l 1
 430 175 l 1
 430 -38 l 2
 430 -60 423 -83 400 -83 c 0
 372 -83 370 -61 370 -38 c 2
 370 140 l 1
 225 56 l 2
 215 50 204 47 194 47 c 0
 180 47 166 60 166 76 c 0
EndSplineSet
EndChar
StartChar: logicaland
Encoding: 8743 8743 224
Width: 1000
Flags: W
LayerCount: 2
Fore
SplineSet
500 555 m 3
 516 555 521 550 536 521 c 2
 802 -5 l 2
 805 -11 808 -18 808 -25 c 0
 808 -43 793 -55 778 -55 c 0
 756 -55 748 -35 741 -21 c 2
 500 456 l 1
 491 437 477 410 469 394 c 2
 259 -21 l 2
 252 -35 244 -55 222 -55 c 0
 206 -55 192 -42 192 -25 c 0
 192 -14 202 2 208 14 c 2
 464 521 l 2
 480 553 491 555 500 555 c 3
EndSplineSet
EndChar
StartChar: logicalor
Encoding: 8744 8744 225
Width: 1000
Flags: W
LayerCount: 2
Fore
SplineSet
222 555 m 0
 244 555 252 534 259 520 c 2
 500 43 l 1
 509 60 520 83 531 104 c 2
 741 520 l 2
 748 534 756 555 778 555 c 0
 793 555 808 542 808 524 c 0
 808 513 798 497 792 485 c 2
 536 -22 l 6
 522 -50 508 -55 500 -55 c 3
 484 -55 479 -51 464 -22 c 2
 199 503 l 2
 195 510 192 517 192 524 c 0
 192 542 207 555 222 555 c 0
EndSplineSet
EndChar
StartChar: union
Encoding: 8746 8746 218
Width: 1000
Flags: W
LayerCount: 2
Fore
SplineSet
229 555 m 0
 246 555 259 540 259 517 c 2
 259 247 l 2
 259 114 367 6 500 6 c 0
 633 6 741 114 741 247 c 2
 741 518 l 2
 741 540 753 555 771 555 c 0
 789 555 802 540 802 515 c 2
 802 247 l 2
 802 80 667 -55 500 -55 c 0
 333 -55 198 80 198 247 c 2
 198 514 l 2
 198 539 210 555 229 555 c 0
EndSplineSet
EndChar
StartChar: integral
Encoding: 8747 8747 236
Width: 1000
Flags: W
LayerCount: 2
Fore
SplineSet
196 -171 m 1
 230 -110 l 1
 240 -120 258 -141 298 -141 c 0
 352 -141 384 -89 390 -62 c 2
 498 445 l 2
 524 568 524 575 540 607 c 4
 547 622 562 647 586 671 c 0
 617 703 664 733 728 733 c 0
 758 733 786 727 804 722 c 1
 788 655 l 1
 760 666 748 671 712 672 c 0
 646 672 616 625 608 607 c 0
 603 596 598 583 570 445 c 2
 474 -27 l 2
 468 -55 464 -82 450 -107 c 0
 438 -134 392 -205 310 -205 c 0
 264 -205 228 -192 196 -171 c 1
EndSplineSet
EndChar
StartChar: integraldbl
Encoding: 8748 8748 237
Width: 1000
Flags: W
LayerCount: 2
Fore
SplineSet
39 -171 m 1
 73 -110 l 1
 83 -120 101 -141 141 -141 c 0
 195 -141 227 -89 233 -62 c 2
 341 445 l 2
 367 568 367 575 383 607 c 0
 390 622 405 647 429 671 c 0
 460 703 507 733 571 733 c 0
 601 733 629 727 647 722 c 1
 631 655 l 1
 603 666 591 671 555 672 c 0
 489 672 459 625 451 607 c 0
 446 596 441 583 413 445 c 2
 317 -27 l 2
 311 -55 307 -82 293 -107 c 0
 281 -134 235 -205 153 -205 c 0
 107 -205 71 -192 39 -171 c 1
353 -171 m 1
 387 -110 l 1
 397 -120 415 -141 455 -141 c 0
 509 -141 541 -89 547 -62 c 2
 655 445 l 2
 681 568 681 575 697 607 c 0
 704 622 719 647 743 671 c 0
 774 703 821 733 885 733 c 0
 915 733 943 727 961 722 c 1
 945 655 l 1
 917 666 905 671 869 672 c 0
 803 672 773 625 765 607 c 0
 760 596 755 583 727 445 c 2
 631 -27 l 2
 625 -55 621 -82 607 -107 c 0
 595 -134 549 -205 467 -205 c 0
 421 -205 385 -192 353 -171 c 1
EndSplineSet
EndChar
StartChar: integraltrpl
Encoding: 8749 8749 248
Width: 1000
Flags: W
LayerCount: 2
Fore
SplineSet
-53 -171 m 5
 -24 -110 l 5
 -13 -120 6 -141 46 -141 c 4
 100 -141 127 -89 131 -62 c 6
 195 445 l 6
 210 568 210 575 223 607 c 4
 229 622 241 647 263 671 c 4
 291 703 336 733 400 733 c 4
 430 733 459 727 477 722 c 5
 467 655 l 5
 438 666 425 671 389 672 c 4
 323 672 297 625 291 607 c 4
 287 596 283 583 267 445 c 6
 212 -27 l 6
 208 -55 207 -82 195 -107 c 4
 185 -134 146 -205 64 -205 c 4
 18 -205 -19 -192 -53 -171 c 5
211 -171 m 5
 240 -110 l 5
 251 -120 270 -141 310 -141 c 4
 364 -141 391 -89 395 -62 c 6
 459 445 l 6
 474 568 474 575 487 607 c 4
 493 622 505 647 527 671 c 4
 555 703 600 733 664 733 c 4
 694 733 723 727 741 722 c 5
 731 655 l 5
 702 666 689 671 653 672 c 4
 587 672 561 625 555 607 c 4
 551 596 547 583 531 445 c 6
 476 -27 l 6
 472 -55 471 -82 459 -107 c 4
 449 -134 410 -205 328 -205 c 4
 282 -205 245 -192 211 -171 c 5
475 -171 m 5
 504 -110 l 5
 515 -120 534 -141 574 -141 c 4
 628 -141 655 -89 659 -62 c 6
 723 445 l 6
 738 568 738 575 751 607 c 4
 757 622 769 647 791 671 c 4
 819 703 864 733 928 733 c 4
 958 733 987 727 1005 722 c 5
 995 655 l 5
 966 666 953 671 917 672 c 4
 851 672 825 625 819 607 c 4
 815 596 811 583 795 445 c 6
 740 -27 l 6
 736 -55 735 -82 723 -107 c 4
 713 -134 674 -205 592 -205 c 4
 546 -205 509 -192 475 -171 c 5
EndSplineSet
EndChar
StartChar: contourintegral
Encoding: 8750 8750 257
Width: 1000
Flags: W
LayerCount: 2
Fore
SplineSet
235 -171 m 1
 264 -110 l 1
 275 -120 294 -141 334 -141 c 0
 388 -141 416 -89 420 -62 c 2
 433 42 l 1
 345 70 281 152 281 250 c 0
 281 367 371 461 486 468 c 1
 498 569 499 577 511 607 c 0
 517 622 529 647 551 671 c 0
 579 703 624 733 688 733 c 0
 718 733 747 727 765 722 c 1
 755 655 l 1
 726 666 713 671 677 672 c 0
 611 672 586 625 579 607 c 0
 575 596 572 584 557 460 c 1
 650 435 717 351 717 250 c 0
 717 132 624 36 507 32 c 1
 500 -27 l 2
 497 -55 495 -82 483 -107 c 0
 473 -134 434 -205 352 -205 c 0
 306 -205 269 -192 235 -171 c 1
341 250 m 0
 341 183 381 126 440 103 c 1
 478 407 l 1
 400 397 341 331 341 250 c 0
514 93 m 1
 595 100 657 167 657 250 c 0
 657 320 613 379 550 400 c 1
 514 93 l 1
EndSplineSet
EndChar
StartChar: therefore
Encoding: 8756 8756 211
Width: 1000
Flags: W
LayerCount: 2
Fore
SplineSet
638 0 m 1
 638 84 l 1
 722 84 l 1
 722 0 l 1
 638 0 l 1
458 361 m 1
 458 445 l 1
 542 445 l 1
 542 361 l 1
 458 361 l 1
278 0 m 1
 278 84 l 1
 362 84 l 1
 362 0 l 1
 278 0 l 1
EndSplineSet
EndChar
StartChar: because
Encoding: 8757 8757 235
Width: 1000
Flags: W
LayerCount: 2
Fore
SplineSet
638 361 m 1
 638 445 l 1
 722 445 l 1
 722 361 l 1
 638 361 l 1
278 361 m 1
 278 445 l 1
 362 445 l 1
 362 361 l 1
 278 361 l 1
458 0 m 1
 458 84 l 1
 542 84 l 1
 542 0 l 1
 458 0 l 1
EndSplineSet
EndChar
StartChar: reversedtilde
Encoding: 8765 8765 259
Width: 1000
Flags: W
LayerCount: 2
Fore
SplineSet
194 250 m 0
 194 343 269 418 362 418 c 0
 379 418 392 405 392 388 c 0
 392 371 379 358 362 358 c 0
 302 358 254 310 254 250 c 0
 254 190 302 142 362 142 c 0
 422 142 470 190 470 250 c 0
 470 343 545 418 638 418 c 0
 731 418 806 343 806 250 c 0
 806 157 731 82 638 82 c 0
 621 82 608 95 608 112 c 0
 608 129 621 142 638 142 c 0
 698 142 746 190 746 250 c 0
 746 310 698 358 638 358 c 0
 578 358 530 310 530 250 c 0
 530 157 455 82 362 82 c 0
 269 82 194 157 194 250 c 0
EndSplineSet
EndChar
StartChar: asymptequal
Encoding: 8771 8771 239
Width: 1000
Flags: W
LayerCount: 2
Fore
SplineSet
168 150 m 0
 168 167 181 181 204 181 c 0
 207 181 211 180 214 180 c 2
 794 180 l 2
 817 180 832 167 832 150 c 0
 832 131 817 119 792 119 c 2
 206 119 l 2
 182 119 168 132 168 150 c 0
170 319 m 1xb0
 173 394 301 438 366 438 c 0x70
 434 438 562 381 626 381 c 0xb0
 660 381 758 400 762 438 c 1
 824 438 l 1x70
 821 364 691 319 626 319 c 0xb0
 558 319 432 377 368 377 c 0x70
 334 377 234 357 230 319 c 1
 170 319 l 1xb0
EndSplineSet
EndChar
StartChar: congruent
Encoding: 8773 8773 240
Width: 1000
Flags: W
LayerCount: 2
Fore
SplineSet
168 50 m 0
 168 67 181 81 204 81 c 0
 207 81 211 80 214 80 c 2
 794 80 l 2
 817 80 832 67 832 50 c 0
 832 31 817 19 792 19 c 2
 206 19 l 2
 182 19 168 32 168 50 c 0
168 250 m 0
 168 267 181 281 204 281 c 0
 207 281 211 280 214 280 c 2
 794 280 l 2
 817 280 832 267 832 250 c 0
 832 231 817 219 792 219 c 2
 206 219 l 2
 182 219 168 232 168 250 c 0
170 419 m 1xb0
 173 494 301 538 366 538 c 0x70
 434 538 562 481 626 481 c 0xb0
 660 481 758 500 762 538 c 1
 824 538 l 1x70
 821 464 691 419 626 419 c 0xb0
 558 419 432 477 368 477 c 0x70
 334 477 234 457 230 419 c 1
 170 419 l 1xb0
EndSplineSet
EndChar
StartChar: approxequal
Encoding: 8776 8776 241
Width: 1000
Flags: W
LayerCount: 2
Fore
SplineSet
173 94 m 1xb0
 176 169 305 213 370 213 c 0x70
 438 213 565 156 629 156 c 0xb0
 663 156 762 175 766 213 c 1
 827 213 l 1x70
 824 139 695 94 630 94 c 0xb0
 562 94 435 152 371 152 c 0x70
 337 152 238 132 234 94 c 1
 173 94 l 1xb0
173 319 m 1xb0
 176 394 305 438 370 438 c 0x70
 438 438 565 381 629 381 c 0xb0
 663 381 762 400 766 438 c 1
 827 438 l 1x70
 824 364 695 319 630 319 c 0xb0
 562 319 435 377 371 377 c 0x70
 337 377 238 357 234 319 c 1
 173 319 l 1xb0
EndSplineSet
EndChar
StartChar: approxequalorimage
Encoding: 8786 8786 126
Width: 1000
Flags: MW
LayerCount: 2
Fore
SplineSet
168 350 m 0
 168 357 170 367 180 374 c 0
 186 378 195 381 208 381 c 2
 792 381 l 2
 804 381 814 379 820 375 c 0
 831 368 832 356 832 350 c 0
 832 343 830 333 822 327 c 0
 816 323 808 320 796 320 c 2
 204 320 l 2
 189 320 181 324 176 329 c 0
 169 336 168 346 168 350 c 0
168 150 m 0
 168 158 171 170 182 176 c 0
 187 179 194 181 204 181 c 0
 207 181 211 180 214 180 c 2
 794 180 l 2
 805 180 814 177 820 174 c 0
 831 167 832 157 832 150 c 0
 832 143 831 134 822 127 c 0
 816 122 806 119 792 119 c 2
 206 119 l 2
 194 119 186 122 180 126 c 0
 170 133 168 143 168 150 c 0
638 -56 m 2
 638 11 l 2
 638 30 647 39 665 39 c 2
 730 39 l 2
 760 39 762 27 762 9 c 2
 762 -52 l 2
 762 -69 755 -84 733 -84 c 2
 668 -84 l 2
 641 -84 638 -70 638 -56 c 2
238 489 m 2
 238 556 l 2
 238 575 247 584 265 584 c 2
 330 584 l 2
 347 584 362 583 362 556 c 2
 362 490 l 2
 362 468 354 461 334 461 c 2
 268 461 l 2
 252 461 238 470 238 489 c 2
EndSplineSet
EndChar
StartChar: notequal
Encoding: 8800 8800 122
Width: 1000
Flags: MW
LayerCount: 2
Fore
SplineSet
329 -99 m 0
 329 -90 335 -77 338 -66 c 2
 402 119 l 1
 206 119 l 2
 194 119 186 122 180 126 c 0
 170 133 168 143 168 150 c 0
 168 158 171 170 182 176 c 0
 187 179 194 181 204 181 c 0
 207 181 211 180 214 180 c 2
 424 180 l 1
 472 320 l 1
 204 320 l 2
 189 320 181 324 176 329 c 0
 169 336 168 346 168 350 c 0
 168 357 170 367 180 374 c 0
 186 378 219 381 232 381 c 2
 494 381 l 1
 561 575 l 2
 565 586 571 604 593 604 c 0
 608 604 623 593 623 574 c 0
 623 566 619 555 616 546 c 2
 559 381 l 1
 792 381 l 2
 804 381 814 379 820 375 c 0
 831 368 832 356 832 350 c 0
 832 343 830 333 822 327 c 0
 816 323 808 320 796 320 c 2
 537 320 l 1
 489 180 l 1
 794 180 l 2
 805 180 814 177 820 174 c 0
 831 167 832 157 832 150 c 0
 832 143 831 134 822 127 c 0
 816 122 806 119 792 119 c 2
 467 119 l 1
 391 -100 l 2
 386 -113 381 -120 376 -124 c 0
 369 -129 363 -128 360 -130 c 2
 359 -130 l 2
 343 -130 329 -116 329 -99 c 0
EndSplineSet
EndChar
StartChar: equivalence
Encoding: 8801 8801 125
Width: 1000
Flags: MW
LayerCount: 2
Fore
SplineSet
168 50 m 0
 168 58 171 70 182 76 c 0
 187 79 194 81 204 81 c 0
 207 81 211 80 214 80 c 2
 794 80 l 2
 805 80 814 77 820 74 c 0
 831 67 832 57 832 50 c 0
 832 43 831 34 822 27 c 0
 816 22 806 19 792 19 c 2
 206 19 l 2
 194 19 186 22 180 26 c 0
 170 33 168 43 168 50 c 0
168 450 m 0
 168 457 170 467 180 474 c 0
 186 478 195 481 208 481 c 2
 792 481 l 2
 804 481 814 479 820 475 c 0
 831 468 832 456 832 450 c 0
 832 443 830 433 822 427 c 0
 816 423 808 420 796 420 c 2
 204 420 l 2
 189 420 181 424 176 429 c 0
 169 436 168 446 168 450 c 0
168 250 m 0
 168 258 171 270 182 276 c 0
 187 279 194 281 204 281 c 0
 207 281 211 280 214 280 c 2
 794 280 l 2
 805 280 814 277 820 274 c 0
 831 267 832 257 832 250 c 0
 832 243 831 234 822 227 c 0
 816 222 806 219 792 219 c 2
 206 219 l 2
 194 219 186 222 180 226 c 0
 170 233 168 243 168 250 c 0
EndSplineSet
EndChar
StartChar: notequivalence
Encoding: 8802 8802 238
Width: 1000
Flags: W
LayerCount: 2
Fore
SplineSet
168 50 m 0
 168 58 171 70 182 76 c 0
 187 79 194 81 204 81 c 0
 207 81 211 80 214 80 c 2
 389 80 l 1
 437 219 l 1
 206 219 l 2
 194 219 186 222 180 226 c 0
 170 233 168 243 168 250 c 0
 168 258 171 270 182 276 c 0
 187 279 194 281 204 281 c 0
 207 281 211 280 214 280 c 2
 458 280 l 1
 507 420 l 1
 204 420 l 2
 189 420 181 424 176 429 c 0
 169 436 168 446 168 450 c 0
 168 457 170 467 180 474 c 0
 186 478 195 481 208 481 c 2
 528 481 l 1
 561 575 l 2
 565 586 571 604 593 604 c 0
 608 604 623 593 623 574 c 0
 623 566 619 555 616 546 c 2
 593 481 l 1
 792 481 l 2
 804 481 814 479 820 475 c 0
 831 468 832 456 832 450 c 0
 832 443 830 433 822 427 c 0
 816 423 808 420 796 420 c 2
 572 420 l 1
 523 280 l 1
 794 280 l 2
 805 280 814 277 820 274 c 0
 831 267 832 257 832 250 c 0
 832 243 831 234 822 227 c 0
 816 222 806 219 792 219 c 2
 502 219 l 1
 454 80 l 1
 794 80 l 2
 805 80 814 77 820 74 c 0
 831 67 832 57 832 50 c 0
 832 43 831 34 822 27 c 0
 816 22 806 19 792 19 c 2
 432 19 l 1
 391 -100 l 2
 385 -118 375 -130 359 -130 c 0
 343 -130 329 -116 329 -99 c 0
 329 -90 334 -77 338 -66 c 2
 368 19 l 1
 206 19 l 2
 194 19 186 22 180 26 c 0
 170 33 168 43 168 50 c 0
EndSplineSet
EndChar
StartChar: lessoverequal
Encoding: 8806 8806 123
Width: 1000
Flags: MW
LayerCount: 2
Fore
SplineSet
168 34 m 0
 168 51.220005635 180.846695892 65 204 65 c 0
 207 65 211 64 214 64 c 2
 794 64 l 2
 817.766458314 64 832 51.6613816588 832 34 c 0
 832 14.0719831189 817.123967546 3 792 3 c 2
 206 3 l 2
 182.794528709 3 168 16.3924009595 168 34 c 0
168 -126 m 0
 168 -108.779994365 180.846695892 -95 204 -95 c 0
 207 -95 211 -96 214 -96 c 2
 794 -96 l 2
 817.766458314 -96 832 -108.338618341 832 -126 c 0
 832 -145.928016881 817.123967546 -157 792 -157 c 2
 206 -157 l 2
 182.794528709 -157 168 -143.607599041 168 -126 c 0
194 380 m 1
 197 396 199 401 228 416 c 2
 754 632 l 2
 760 635 767 638 774 638 c 0
 792 638 804 623 804 608 c 0
 804 586 785 577 770 571 c 2
 294 380 l 1
 313 371 339 361 356 355 c 2
 770 189 l 2
 784 182 804 174 804 152 c 0
 804 136 791 122 774 122 c 0
 763 122 748 132 736 138 c 2
 228 344 l 2
 188 360 197 372 194 380 c 1
EndSplineSet
EndChar
StartChar: greateroverequal
Encoding: 8807 8807 124
Width: 1000
Flags: MW
LayerCount: 2
Fore
SplineSet
168 -126 m 0
 168 -118 171 -106 182 -100 c 0
 187 -97 194 -95 204 -95 c 0
 207 -95 211 -96 214 -96 c 2
 794 -96 l 2
 805 -96 814 -99 820 -102 c 0
 831 -109 832 -119 832 -126 c 0
 832 -133 831 -142 822 -149 c 0
 816 -154 806 -157 792 -157 c 2
 206 -157 l 2
 194 -157 186 -154 180 -150 c 0
 170 -143 168 -133 168 -126 c 0
194 152 m 0
 194 174 216 182 230 189 c 2
 706 380 l 1
 689 389 667 395 646 406 c 2
 230 571 l 2
 215 577 194 586 194 608 c 0
 194 623 208 638 226 638 c 0
 237 638 252 627 264 622 c 2
 772 416 l 2
 811 396 802 388 804 380 c 1
 802 364 802 356 772 344 c 2
 246 129 l 2
 239 125 233 122 226 122 c 0
 208 122 194 137 194 152 c 0
168 34 m 0
 168 42 171 54 182 60 c 0
 187 63 194 65 204 65 c 0
 207 65 211 64 214 64 c 2
 794 64 l 2
 805 64 814 61 820 58 c 0
 831 51 832 41 832 34 c 0
 832 27 831 18 822 11 c 0
 816 6 806 3 792 3 c 2
 206 3 l 2
 194 3 186 6 180 10 c 0
 170 17 168 27 168 34 c 0
EndSplineSet
EndChar
StartChar: muchless
Encoding: 8810 8810 232
Width: 1000
Flags: W
LayerCount: 2
Fore
SplineSet
448 250 m 1
 451 266 457 265 482 286 c 2
 808 552 l 2
 813 556 815 558 822 558 c 0
 840 558 852 543 852 528 c 0
 852 506 836 501 824 491 c 2
 524 250 l 1
 824 9 l 2
 836 0 850 -6 850 -28 c 0
 850 -44 837 -58 820 -58 c 0
 809 -58 797 -49 788 -42 c 2
 482 214 l 2
 449 242 451 242 448 250 c 1
148 250 m 1
 151 266 157 265 182 286 c 2
 508 552 l 2
 513 556 515 558 522 558 c 0
 540 558 552 543 552 528 c 0
 552 506 536 501 524 491 c 2
 224 250 l 1
 524 9 l 2
 536 0 550 -6 550 -28 c 0
 550 -44 537 -58 520 -58 c 0
 509 -58 497 -49 488 -42 c 2
 182 214 l 2
 149 242 151 242 148 250 c 1
EndSplineSet
EndChar
StartChar: muchgreater
Encoding: 8811 8811 233
Width: 1000
Flags: W
LayerCount: 2
Fore
SplineSet
450 -28 m 0
 450 -6 464 0 476 9 c 2
 776 250 l 1
 476 491 l 2
 464 501 448 506 448 528 c 0
 448 543 460 558 478 558 c 0
 485 558 487 556 492 552 c 2
 818 286 l 2
 843 265 849 266 852 250 c 1
 849 242 851 242 818 214 c 2
 512 -42 l 2
 503 -49 491 -58 480 -58 c 0
 463 -58 450 -44 450 -28 c 0
150 -28 m 0
 150 -6 164 0 176 9 c 2
 476 250 l 1
 176 491 l 2
 164 501 148 506 148 528 c 0
 148 543 160 558 178 558 c 0
 185 558 187 556 192 552 c 2
 518 286 l 2
 543 265 549 266 552 250 c 1
 549 242 551 242 518 214 c 2
 212 -42 l 2
 203 -49 191 -58 180 -58 c 0
 163 -58 150 -44 150 -28 c 0
EndSplineSet
EndChar
StartChar: lessorequivalent
Encoding: 8818 8818 249
Width: 1000
Flags: W
LayerCount: 2
Fore
SplineSet
173 -56 m 1xb0
 176 19 305 63 370 63 c 0x70
 438 63 565 6 629 6 c 0xb0
 663 6 762 25 766 63 c 1
 827 63 l 1x70
 824 -11 695 -56 630 -56 c 0xb0
 562 -56 435 2 371 2 c 0x70
 337 2 238 -18 234 -56 c 1
 173 -56 l 1xb0
197 380 m 1
 200 396 202 401 231 416 c 2
 757 632 l 2
 763 635 770 638 777 638 c 0
 795 638 807 623 807 608 c 0
 807 586 788 577 773 571 c 2
 297 380 l 1
 316 371 342 361 359 355 c 2
 773 189 l 2
 787 182 807 174 807 152 c 0
 807 136 794 122 777 122 c 0
 766 122 751 132 739 138 c 2
 231 344 l 2
 191 360 200 372 197 380 c 1
EndSplineSet
EndChar
StartChar: greaterorequivalent
Encoding: 8819 8819 250
Width: 1000
Flags: W
LayerCount: 2
Fore
SplineSet
173 -56 m 1xb0
 176 19 305 63 370 63 c 0x70
 438 63 565 6 629 6 c 0xb0
 663 6 762 25 766 63 c 1
 827 63 l 1x70
 824 -11 695 -56 630 -56 c 0xb0
 562 -56 435 2 371 2 c 0x70
 337 2 238 -18 234 -56 c 1
 173 -56 l 1xb0
197 152 m 0
 197 174 219 182 233 189 c 2
 709 380 l 1
 692 389 670 395 649 406 c 2
 233 571 l 2
 218 577 197 586 197 608 c 0
 197 623 211 638 229 638 c 0
 240 638 255 627 267 622 c 2
 775 416 l 2
 814 396 805 388 807 380 c 1
 805 364 805 356 775 344 c 2
 249 129 l 2
 242 125 236 122 229 122 c 0
 211 122 197 137 197 152 c 0
EndSplineSet
EndChar
StartChar: lessorgreater
Encoding: 8822 8822 242
Width: 1000
Flags: W
LayerCount: 2
Fore
SplineSet
195 -148 m 0
 195 -126 217 -118 231 -111 c 2
 707 80 l 1
 690 89 668 95 647 106 c 2
 231 271 l 2
 216 277 195 286 195 308 c 0
 195 323 209 338 227 338 c 0
 238 338 253 327 265 322 c 2
 773 116 l 2
 812 96 803 88 805 80 c 1
 803 64 803 56 773 44 c 2
 247 -171 l 2
 240 -175 234 -178 227 -178 c 0
 209 -178 195 -163 195 -148 c 0
195 480 m 1
 198 496 200 501 229 516 c 2
 755 732 l 2
 761 735 768 738 775 738 c 0
 793 738 805 723 805 708 c 0
 805 686 786 677 771 671 c 2
 295 480 l 1
 314 471 340 461 357 455 c 2
 771 289 l 2
 785 282 805 274 805 252 c 0
 805 236 792 222 775 222 c 0
 764 222 749 232 737 238 c 2
 229 444 l 2
 189 460 198 472 195 480 c 1
EndSplineSet
EndChar
StartChar: greaterorless
Encoding: 8823 8823 243
Width: 1000
Flags: W
LayerCount: 2
Fore
SplineSet
195 80 m 1
 198 96 200 101 229 116 c 2
 755 332 l 2
 761 335 768 338 775 338 c 0
 793 338 805 323 805 308 c 0
 805 286 786 277 771 271 c 2
 295 80 l 1
 314 71 340 61 357 55 c 2
 771 -111 l 2
 785 -118 805 -126 805 -148 c 0
 805 -164 792 -178 775 -178 c 0
 764 -178 749 -168 737 -162 c 2
 229 44 l 2
 189 60 198 72 195 80 c 1
195 252 m 0
 195 274 217 282 231 289 c 2
 707 480 l 1
 690 489 668 495 647 506 c 2
 231 671 l 2
 216 677 195 686 195 708 c 0
 195 723 209 738 227 738 c 0
 238 738 253 727 265 722 c 2
 773 516 l 2
 812 496 803 488 805 480 c 1
 803 464 803 456 773 444 c 2
 247 229 l 2
 240 225 234 222 227 222 c 0
 209 222 195 237 195 252 c 0
EndSplineSet
EndChar
StartChar: subset
Encoding: 8834 8834 216
Width: 1000
Flags: W
LayerCount: 2
Fore
SplineSet
195 250 m 0
 195 417 330 552 497 552 c 2
 765 552 l 2
 790 552 805 539 805 521 c 0
 805 503 790 491 768 491 c 2
 497 491 l 2
 364 491 256 383 256 250 c 0
 256 117 364 9 497 9 c 2
 767 9 l 2
 790 9 805 -4 805 -21 c 0
 805 -40 789 -52 764 -52 c 2
 497 -52 l 2
 330 -52 195 83 195 250 c 0
EndSplineSet
EndChar
StartChar: superset
Encoding: 8835 8835 217
Width: 1000
Flags: W
LayerCount: 2
Fore
SplineSet
195 -21 m 0
 195 -4 210 9 233 9 c 2
 503 9 l 2
 636 9 744 117 744 250 c 0
 744 383 636 491 503 491 c 2
 232 491 l 2
 210 491 195 503 195 521 c 0
 195 539 210 552 235 552 c 2
 503 552 l 2
 670 552 805 417 805 250 c 0
 805 83 670 -52 503 -52 c 2
 236 -52 l 2
 211 -52 195 -40 195 -21 c 0
EndSplineSet
EndChar
StartChar: notsubset
Encoding: 8836 8836 220
Width: 1000
Flags: W
LayerCount: 2
Fore
SplineSet
256 250 m 0
 256 144 324 54 419 22 c 1
 582 491 l 1
 497 491 l 2
 364 491 256 383 256 250 c 0
195 250 m 0
 195 417 330 552 497 552 c 2
 603 552 l 1
 628 625 l 2
 632 636 638 654 660 654 c 0
 675 654 690 643 690 624 c 0
 690 616 686 605 683 596 c 2
 668 552 l 1
 765 552 l 2
 790 552 805 539 805 521 c 0
 805 503 790 491 768 491 c 2
 647 491 l 1
 479 10 l 1
 485 10 491 9 497 9 c 2
 767 9 l 2
 790 9 805 -4 805 -21 c 0
 805 -40 789 -52 764 -52 c 2
 497 -52 l 2
 484 -52 471 -52 459 -50 c 1
 424 -150 l 2
 418 -168 408 -180 392 -180 c 0
 376 -180 362 -166 362 -149 c 0
 362 -140 367 -127 371 -116 c 2
 399 -36 l 1
 280 5 195 117 195 250 c 0
EndSplineSet
EndChar
StartChar: notsuperset
Encoding: 8837 8837 221
Width: 1000
Flags: W
LayerCount: 2
Fore
SplineSet
427 9 m 1
 503 9 l 2
 636 9 744 117 744 250 c 0
 744 353 680 440 589 475 c 1
 427 9 l 1
195 -21 m 0
 195 -4 210 9 233 9 c 2
 362 9 l 1
 529 490 l 1
 520 491 512 491 503 491 c 2
 232 491 l 2
 210 491 195 503 195 521 c 0
 195 539 210 552 235 552 c 2
 503 552 l 2
 519 552 534 550 549 548 c 1
 576 625 l 2
 580 636 586 654 608 654 c 0
 623 654 638 643 638 624 c 0
 638 616 634 605 631 596 c 2
 609 533 l 1
 724 490 805 380 805 250 c 0
 805 83 670 -52 503 -52 c 2
 406 -52 l 1
 372 -150 l 2
 366 -168 356 -180 340 -180 c 0
 324 -180 310 -166 310 -149 c 0
 310 -140 315 -127 319 -116 c 2
 341 -52 l 1
 236 -52 l 2
 211 -52 195 -40 195 -21 c 0
EndSplineSet
EndChar
StartChar: supersetorequal
Encoding: 8839 8839 215
Width: 1000
Flags: W
LayerCount: 2
Fore
SplineSet
196 129 m 0
 196 146 211 159 234 159 c 2
 504 159 l 2
 637 159 746 192 746 325 c 0
 746 458 637 491 504 491 c 2
 234 491 l 2
 212 491 196 503 196 521 c 0
 196 539 211 552 236 552 c 2
 504 552 l 2
 671 552 806 492 806 325 c 0
 806 158 671 98 504 98 c 2
 238 98 l 2
 213 98 196 110 196 129 c 0
168 -46 m 0
 168 -29 181 -15 204 -15 c 0
 207 -15 211 -16 214 -16 c 2
 794 -16 l 2
 817 -16 832 -29 832 -46 c 0
 832 -65 817 -77 792 -77 c 2
 206 -77 l 2
 182 -77 168 -64 168 -46 c 0
EndSplineSet
EndChar
StartChar: subsetnotequal
Encoding: 8842 8842 222
Width: 1000
Flags: W
LayerCount: 2
Fore
SplineSet
168 -46 m 0
 168 -29 181 -15 204 -15 c 0
 207 -15 211 -16 214 -16 c 2
 486 -16 l 1
 526 98 l 1
 496 98 l 2
 329 98 194 158 194 325 c 0
 194 492 329 552 496 552 c 2
 764 552 l 2
 789 552 804 539 804 521 c 0
 804 503 790 491 768 491 c 2
 496 491 l 2
 363 491 256 458 256 325 c 0
 256 192 363 159 496 159 c 2
 766 159 l 2
 789 159 804 146 804 129 c 0
 804 110 789 98 764 98 c 2
 592 98 l 1
 550 -16 l 1
 794 -16 l 2
 817 -16 832 -29 832 -46 c 0
 832 -65 817 -77 792 -77 c 2
 530 -77 l 1
 496 -170 l 2
 490 -188 480 -200 464 -200 c 0
 448 -200 434 -186 434 -169 c 0
 434 -160 440 -147 444 -136 c 2
 464 -77 l 1
 206 -77 l 2
 182 -77 168 -64 168 -46 c 0
EndSplineSet
EndChar
StartChar: supersetnotequal
Encoding: 8843 8843 223
Width: 1000
Flags: W
LayerCount: 2
Fore
SplineSet
168 -46 m 0
 168 -29 181 -15 204 -15 c 0
 207 -15 211 -16 214 -16 c 2
 486 -16 l 1
 526 98 l 1
 519 98 511 98 504 98 c 2
 238 98 l 2
 213 98 196 110 196 129 c 0
 196 146 211 159 234 159 c 2
 504 159 l 2
 637 159 746 192 746 325 c 0
 746 458 637 491 504 491 c 2
 234 491 l 2
 212 491 196 503 196 521 c 0
 196 539 211 552 236 552 c 2
 504 552 l 2
 671 552 806 492 806 325 c 0
 806 189 717 123 594 104 c 1
 550 -16 l 1
 794 -16 l 2
 817 -16 832 -29 832 -46 c 0
 832 -65 817 -77 792 -77 c 2
 530 -77 l 1
 496 -170 l 2
 490 -188 480 -200 464 -200 c 0
 448 -200 434 -186 434 -169 c 0
 434 -160 440 -147 444 -136 c 2
 464 -77 l 1
 206 -77 l 2
 182 -77 168 -64 168 -46 c 0
EndSplineSet
EndChar
StartChar: circleplus
Encoding: 8853 8853 253
Width: 1000
Flags: W
LayerCount: 2
Fore
SplineSet
198 250 m 0
 198 417 333 552 500 552 c 0
 667 552 802 417 802 250 c 0
 802 83 667 -52 500 -52 c 0
 333 -52 198 83 198 250 c 0
261 220 m 1
 275 111 360 25 469 11 c 1
 469 220 l 1
 261 220 l 1
261 281 m 1
 469 281 l 1
 469 489 l 1
 361 475 275 389 261 281 c 1
530 11 m 1
 639 25 725 111 739 220 c 1
 530 220 l 1
 530 11 l 1
530 281 m 1
 739 281 l 1
 725 390 639 475 530 489 c 1
 530 281 l 1
EndSplineSet
EndChar
StartChar: circleminus
Encoding: 8854 8854 254
Width: 1000
Flags: W
LayerCount: 2
Fore
SplineSet
198 250 m 0
 198 417 333 552 500 552 c 0
 667 552 802 417 802 250 c 0
 802 83 667 -52 500 -52 c 0
 333 -52 198 83 198 250 c 0
261 220 m 1
 276 101 377 9 500 9 c 0
 623 9 724 101 739 220 c 1
 261 220 l 1
261 281 m 1
 739 281 l 1
 724 399 622 491 500 491 c 0
 378 491 276 399 261 281 c 1
EndSplineSet
EndChar
StartChar: circlemultiply
Encoding: 8855 8855 255
Width: 1000
Flags: W
LayerCount: 2
Fore
SplineSet
543 249 m 1
 690 102 l 1
 722 143 741 194 741 250 c 0
 741 305 722 356 691 397 c 1
 543 249 l 1
353 59 m 1
 394 28 445 9 500 9 c 0
 555 9 606 28 647 59 c 1
 500 206 l 1
 353 59 l 1
352 440 m 1
 500 292 l 1
 648 440 l 1
 607 472 556 491 500 491 c 0
 444 491 393 472 352 440 c 1
198 250 m 0
 198 417 333 552 500 552 c 0
 667 552 802 417 802 250 c 0
 802 83 667 -52 500 -52 c 0
 333 -52 198 83 198 250 c 0
259 250 m 0
 259 194 278 143 310 102 c 1
 457 249 l 1
 309 397 l 1
 278 356 259 305 259 250 c 0
EndSplineSet
EndChar
StartChar: circledivide
Encoding: 8856 8856 256
Width: 1000
Flags: W
LayerCount: 2
Fore
SplineSet
198 250 m 0
 198 417 333 552 500 552 c 0
 667 552 802 417 802 250 c 0
 802 83 667 -52 500 -52 c 0
 333 -52 198 83 198 250 c 0
259 250 m 0
 259 194 278 143 310 102 c 1
 648 440 l 1
 607 472 556 491 500 491 c 0
 367 491 259 383 259 250 c 0
353 59 m 1
 394 28 445 9 500 9 c 0
 633 9 741 117 741 250 c 0
 741 305 722 356 691 397 c 1
 353 59 l 1
EndSplineSet
EndChar
StartChar: squareplus
Encoding: 8862 8862 265
Width: 1000
Flags: W
LayerCount: 2
Fore
SplineSet
167 -53 m 2
 167 552 l 2
 167 571 178 583 197 583 c 2
 802 583 l 2
 821 583 832 570 833 552 c 2
 833 -53 l 2
 832 -73 821 -83 803 -83 c 2
 198 -83 l 2
 179 -83 167 -71 167 -53 c 2
228 220 m 1
 228 -22 l 1
 470 -22 l 1
 470 220 l 1
 228 220 l 1
531 -22 m 1
 772 -22 l 1
 772 220 l 1
 531 220 l 1
 531 -22 l 1
772 281 m 1
 772 522 l 1
 531 522 l 1
 531 281 l 1
 772 281 l 1
470 522 m 1
 228 522 l 1
 228 281 l 1
 470 281 l 1
 470 522 l 1
EndSplineSet
EndChar
StartChar: squaremultiply
Encoding: 8864 8864 266
Width: 1000
Flags: W
LayerCount: 2
Fore
SplineSet
167 -53 m 2
 167 552 l 2
 167 571 178 583 197 583 c 2
 802 583 l 2
 821 583 832 570 833 552 c 2
 833 -53 l 2
 832 -73 821 -83 803 -83 c 2
 198 -83 l 2
 179 -83 167 -71 167 -53 c 2
270 -22 m 1
 730 -22 l 1
 500 208 l 1
 270 -22 l 1
772 22 m 1
 772 480 l 1
 543 251 l 1
 772 22 l 1
728 522 m 1
 272 522 l 1
 500 294 l 1
 728 522 l 1
228 480 m 1
 228 22 l 1
 457 251 l 1
 228 480 l 1
EndSplineSet
EndChar
StartChar: righttriangle
Encoding: 8895 8895 246
Width: 1000
Flags: W
LayerCount: 2
Fore
SplineSet
218 -24 m 0
 218 -7 229 0 238 9 c 2
 722 541 l 2
 731 551 743 555 752 555 c 0
 771 555 782 539 782 514 c 2
 782 -24 l 2
 782 -43 767 -55 742 -55 c 2
 256 -55 l 2
 235 -55 218 -45 218 -24 c 0
318 6 m 1
 722 6 l 1
 722 450 l 1
 318 6 l 1
EndSplineSet
EndChar
StartChar: lessequalgreater
Encoding: 8922 8922 260
Width: 1000
Flags: W
LayerCount: 2
Fore
SplineSet
194 -145 m 0
 194 -123 216 -118 230 -111 c 2
 706 5 l 1
 230 121 l 0
 215 127 194 128 194 150 c 0
 194 165 208 180 226 180 c 0
 237 180 251 175 264 172 c 2
 772 41 l 2
 803 33 804 13 804 5 c 3
 804 -11 803 -23 772 -31 c 2
 246 -171 l 2
 239 -175 233 -175 226 -175 c 0
 208 -175 194 -160 194 -145 c 0
194 480 m 1
 197 496 196 508 228 516 c 2
 754 657 l 2
 760 660 767 661 774 661 c 0
 792 661 804 646 804 631 c 0
 804 609 785 602 770 596 c 2
 294 480 l 1
 770 364 l 2
 785 360 804 359 804 337 c 0
 804 321 791 307 774 307 c 0
 763 307 749 310 736 313 c 2
 228 444 l 2
 188 460 197 472 194 480 c 1
168 250 m 0
 168 258 171 270 182 276 c 0
 187 279 194 281 204 281 c 0
 207 281 211 280 214 280 c 2
 794 280 l 2
 805 280 814 277 820 274 c 0
 831 267 832 257 832 250 c 0
 832 243 831 234 822 227 c 0
 816 222 806 219 792 219 c 2
 206 219 l 2
 194 219 186 222 180 226 c 0
 170 233 168 243 168 250 c 0
EndSplineSet
EndChar
StartChar: greaterequalless
Encoding: 8923 8923 261
Width: 1000
Flags: W
LayerCount: 2
Fore
SplineSet
194 5 m 3
 194 21 199 26 228 41 c 2
 754 182 l 2
 760 184 767 186 774 186 c 0
 792 186 804 171 804 156 c 0
 804 134 786 125 770 121 c 2
 294 5 l 1
 770 -111 l 2
 785 -115 804 -117 804 -139 c 0
 804 -155 791 -169 774 -169 c 0
 763 -169 749 -165 736 -162 c 10
 228 -31 l 2
 198 -23 194 -4 194 5 c 3
194 330 m 0
 194 352 215 360 230 364 c 2
 706 480 l 1
 230 596 l 2
 214 600 194 603 194 625 c 0
 194 640 208 655 226 655 c 0
 237 655 251 650 264 647 c 2
 772 516 l 2
 803 508 804 488 804 480 c 3
 804 464 802 456 772 444 c 2
 246 304 l 2
 238 302 233 300 226 300 c 0
 208 300 194 315 194 330 c 0
168 250 m 0
 168 258 171 270 182 276 c 0
 187 279 194 281 204 281 c 0
 207 281 211 280 214 280 c 2
 794 280 l 2
 805 280 814 277 820 274 c 0
 831 267 832 257 832 250 c 0
 832 243 831 234 822 227 c 0
 816 222 806 219 792 219 c 2
 206 219 l 2
 194 219 186 222 180 226 c 0
 170 233 168 243 168 250 c 0
EndSplineSet
EndChar
StartChar: lthorizform
Encoding: 9472 9472 134
Width: 1000
Flags: W
LayerCount: 2
Fore
SplineSet
0 277 m 1
 0 323 l 1
 1000 323 l 1
 1000 277 l 1
 0 277 l 1
EndSplineSet
EndChar
StartChar: hvvertform
Encoding: 9475 9475 137
Width: 1000
VWidth: 940
Flags: W
LayerCount: 2
Fore
SplineSet
427 -200 m 1
 427 800 l 1
 573 800 l 1
 573 -200 l 1
 427 -200 l 1
EndSplineSet
EndChar
StartChar: hvdashtriphorizform
Encoding: 9477 9477 139
Width: 1000
VWidth: 940
Flags: W
LayerCount: 2
Fore
SplineSet
60 227 m 5
 60 373 l 1
 274 373 l 1
 274 227 l 5
 60 227 l 5
393 227 m 1
 393 373 l 1
 607 373 l 1
 607 227 l 1
 393 227 l 1
726 227 m 1
 726 373 l 1
 940 373 l 1
 940 227 l 1
 726 227 l 1
EndSplineSet
EndChar
StartChar: ltdashtripvertform
Encoding: 9478 9478 140
Width: 1000
Flags: W
LayerCount: 2
Fore
SplineSet
477 74 m 1
 523 74 l 1
 523 -140 l 1
 477 -140 l 1
 477 74 l 1
477 193 m 1
 477 407 l 1
 523 407 l 1
 523 193 l 1
 477 193 l 1
477 526 m 1
 477 740 l 1
 523 740 l 1
 523 526 l 1
 477 526 l 1
EndSplineSet
EndChar
StartChar: hvdashquadhorizform
Encoding: 9481 9481 143
Width: 1000
Flags: W
LayerCount: 2
Fore
SplineSet
41 227 m 1
 41 373 l 1
 208 373 l 1
 208 227 l 1
 41 227 l 1
292 227 m 1
 292 373 l 1
 458 373 l 1
 458 227 l 1
 292 227 l 1
541 227 m 1
 541 373 l 1
 708 373 l 1
 708 227 l 1
 541 227 l 1
791 227 m 1
 791 373 l 1
 958 373 l 1
 958 227 l 1
 791 227 l 1
EndSplineSet
EndChar
StartChar: dnltrthvform
Encoding: 9485 9485 147
Width: 1000
Flags: W
LayerCount: 2
Fore
SplineSet
477 -200 m 1
 477 373 l 1
 1000 373 l 1
 1000 227 l 1
 523 227 l 1
 523 -200 l 1
 477 -200 l 1
EndSplineSet
EndChar
StartChar: ltuprtform
Encoding: 9492 9492 154
Width: 1000
Flags: W
LayerCount: 2
Fore
SplineSet
477 277 m 1
 477 800 l 1
 523 800 l 1
 523 323 l 1
 1000 323 l 1
 1000 277 l 1
 477 277 l 1
EndSplineSet
EndChar
StartChar: hvuprtform
Encoding: 9495 9495 157
Width: 1000
VWidth: 940
Flags: W
LayerCount: 2
Fore
SplineSet
427 227 m 1
 427 800 l 1
 573 800 l 1
 573 373 l 1
 1000 373 l 1
 1000 227 l 1
 427 227 l 1
EndSplineSet
EndChar
StartChar: uphvleftltform
Encoding: 9498 9498 160
Width: 1000
VWidth: 940
Flags: W
LayerCount: 2
Fore
SplineSet
0 277 m 1
 0 323 l 1
 427 323 l 1
 427 800 l 1
 573 800 l 1
 573 277 l 1
 0 277 l 1
EndSplineSet
EndChar
StartChar: ltvertrightform
Encoding: 9500 9500 162
Width: 1000
Flags: W
LayerCount: 2
Fore
SplineSet
477 -200 m 1
 477 800 l 1
 523 800 l 1
 523 323 l 1
 1000 323 l 1
 1000 277 l 1
 523 277 l 1
 523 -200 l 1
 477 -200 l 1
EndSplineSet
EndChar
StartChar: uphvrtdnltform
Encoding: 9502 9502 164
Width: 1000
Flags: W
LayerCount: 2
Fore
SplineSet
427 277 m 1
 427 800 l 1
 573 800 l 1
 573 323 l 1
 1000 323 l 1
 1000 277 l 1
 523 277 l 1
 523 -200 l 1
 477 -200 l 1
 477 277 l 1
 427 277 l 1
EndSplineSet
EndChar
StartChar: dnhvrtupltform
Encoding: 9503 9503 165
Width: 1000
Flags: W
LayerCount: 2
Fore
SplineSet
427 -200 m 1
 427 323 l 1
 477 323 l 1
 477 800 l 1
 523 800 l 1
 523 323 l 1
 1000 323 l 1
 1000 277 l 1
 573 277 l 1
 573 -200 l 1
 427 -200 l 1
EndSplineSet
EndChar
StartChar: verthvrtltform
Encoding: 9504 9504 166
Width: 1000
Flags: W
LayerCount: 2
Fore
SplineSet
427 -200 m 1
 427 800 l 1
 573 800 l 1
 573 323 l 1
 1000 323 l 1
 1000 277 l 1
 573 277 l 1
 573 -200 l 1
 427 -200 l 1
EndSplineSet
EndChar
StartChar: dnltrtuphvform
Encoding: 9505 9505 167
Width: 1000
VWidth: 940
Flags: W
LayerCount: 2
Fore
SplineSet
427 227 m 1
 427 800 l 1
 573 800 l 1
 573 373 l 1
 1000 373 l 1
 1000 227 l 1
 523 227 l 1
 523 -200 l 1
 477 -200 l 1
 477 227 l 1
 427 227 l 1
EndSplineSet
EndChar
StartChar: uphvleftdnltform
Encoding: 9510 9510 172
Width: 1000
VWidth: 940
Flags: W
LayerCount: 2
Fore
SplineSet
33 277 m 1
 33 323 l 1
 460 323 l 1
 460 800 l 1
 607 800 l 1
 607 277 l 1
 557 277 l 1
 557 -200 l 1
 510 -200 l 1
 510 277 l 1
 33 277 l 1
EndSplineSet
EndChar
StartChar: dnhvleftupltform
Encoding: 9511 9511 173
Width: 1000
VWidth: 940
Flags: W
LayerCount: 2
Fore
SplineSet
0 277 m 1
 0 323 l 1
 477 323 l 1
 477 800 l 1
 523 800 l 1
 523 323 l 1
 573 323 l 1
 573 -200 l 1
 427 -200 l 1
 427 277 l 1
 0 277 l 1
EndSplineSet
EndChar
StartChar: ltdnhorizform
Encoding: 9516 9516 178
Width: 1000
VWidth: 940
Flags: W
LayerCount: 2
Fore
SplineSet
0 277 m 1
 0 323 l 1
 1000 323 l 1
 1000 277 l 1
 523 277 l 1
 523 -200 l 1
 477 -200 l 1
 477 277 l 1
 0 277 l 1
EndSplineSet
EndChar
StartChar: dnhvhorizltform
Encoding: 9520 9520 182
Width: 1000
VWidth: 940
Flags: W
LayerCount: 2
Fore
SplineSet
0 277 m 1
 0 323 l 1
 1000 323 l 1
 1000 277 l 1
 573 277 l 1
 573 -200 l 1
 427 -200 l 1
 427 277 l 1
 0 277 l 1
EndSplineSet
EndChar
StartChar: rtltrtdnhvform
Encoding: 9521 9521 183
Width: 1000
Flags: W
LayerCount: 2
Fore
SplineSet
0 227 m 1
 0 373 l 1
 573 373 l 1
 573 323 l 1
 1000 323 l 1
 1000 277 l 1
 573 277 l 1
 573 -200 l 1
 427 -200 l 1
 427 227 l 1
 0 227 l 1
EndSplineSet
EndChar
StartChar: leftltrtdnhvform
Encoding: 9522 9522 184
Width: 1000
Flags: W
LayerCount: 2
Fore
SplineSet
0 277 m 1
 0 323 l 1
 427 323 l 1
 427 373 l 1
 1000 373 l 1
 1000 227 l 1
 573 227 l 1
 573 -200 l 1
 427 -200 l 1
 427 277 l 1
 0 277 l 1
EndSplineSet
EndChar
StartChar: lefthvrtupltform
Encoding: 9525 9525 187
Width: 1000
VWidth: 940
Flags: W
LayerCount: 2
Fore
SplineSet
0 227 m 1
 0 373 l 1
 477 373 l 1
 477 800 l 1
 523 800 l 1
 523 323 l 1
 1000 323 l 1
 1000 277 l 1
 523 277 l 1
 523 227 l 1
 0 227 l 1
EndSplineSet
EndChar
StartChar: rthvleftupltform
Encoding: 9526 9526 188
Width: 1000
Flags: W
LayerCount: 2
Fore
SplineSet
0 277 m 1
 0 323 l 1
 477 323 l 1
 477 800 l 1
 523 800 l 1
 523 373 l 1
 1000 373 l 1
 1000 227 l 1
 477 227 l 1
 477 277 l 1
 0 277 l 1
EndSplineSet
EndChar
StartChar: uplthorizhvform
Encoding: 9527 9527 189
Width: 1000
Flags: W
LayerCount: 2
Fore
SplineSet
0 227 m 1
 0 373 l 1
 477 373 l 1
 477 800 l 1
 523 800 l 1
 523 373 l 1
 1000 373 l 1
 1000 227 l 1
 0 227 l 1
EndSplineSet
EndChar
StartChar: hvuphorizform
Encoding: 9531 9531 193
Width: 1000
Flags: W
LayerCount: 2
Fore
SplineSet
0 227 m 1
 0 373 l 1
 427 373 l 1
 427 800 l 1
 573 800 l 1
 573 373 l 1
 1000 373 l 1
 1000 227 l 1
 0 227 l 1
EndSplineSet
EndChar
StartChar: lefthvrtvertltform
Encoding: 9533 9533 195
Width: 1000
VWidth: 940
Flags: W
LayerCount: 2
Fore
SplineSet
0 227 m 1
 0 373 l 1
 477 373 l 1
 477 800 l 1
 523 800 l 1
 523 323 l 1
 1000 323 l 1
 1000 277 l 1
 523 277 l 1
 523 -200 l 1
 477 -200 l 1
 477 227 l 1
 0 227 l 1
EndSplineSet
EndChar
StartChar: rthvleftvertltform
Encoding: 9534 9534 196
Width: 1000
Flags: W
LayerCount: 2
Fore
SplineSet
0 277 m 1
 0 323 l 1
 477 323 l 1
 477 800 l 1
 523 800 l 1
 523 373 l 1
 1000 373 l 1
 1000 227 l 1
 523 227 l 1
 523 -200 l 1
 477 -200 l 1
 477 277 l 1
 0 277 l 1
EndSplineSet
EndChar
StartChar: uphvdnhorizltform
Encoding: 9536 9536 198
Width: 1000
Flags: W
LayerCount: 2
Fore
SplineSet
0 277 m 1
 0 323 l 1
 427 323 l 1
 427 800 l 1
 573 800 l 1
 573 323 l 1
 1000 323 l 1
 1000 277 l 1
 523 277 l 1
 523 -200 l 1
 477 -200 l 1
 477 277 l 1
 0 277 l 1
EndSplineSet
EndChar
StartChar: verthvhorizltform
Encoding: 9538 9538 200
Width: 1000
Flags: W
LayerCount: 2
Fore
SplineSet
0 277 m 1
 0 323 l 1
 427 323 l 1
 427 800 l 1
 573 800 l 1
 573 323 l 1
 1000 323 l 1
 1000 277 l 1
 573 277 l 1
 573 -200 l 1
 427 -200 l 1
 427 277 l 1
 0 277 l 1
EndSplineSet
EndChar
StartChar: rtuphvleftdnltform
Encoding: 9540 9540 202
Width: 1000
Flags: W
LayerCount: 2
Fore
SplineSet
0 277 m 1
 0 323 l 1
 427 323 l 1
 427 800 l 1
 573 800 l 1
 573 373 l 1
 1000 373 l 1
 1000 227 l 1
 523 227 l 1
 523 -200 l 1
 477 -200 l 1
 477 227 l 1
 427 227 l 1
 427 277 l 1
 0 277 l 1
EndSplineSet
EndChar
StartChar: rtdnhvleftupltform
Encoding: 9542 9542 204
Width: 1000
Flags: W
LayerCount: 2
Fore
SplineSet
0 277 m 1
 0 323 l 1
 427 323 l 1
 427 373 l 1
 477 373 l 1
 477 800 l 1
 523 800 l 1
 523 373 l 1
 1000 373 l 1
 1000 227 l 1
 573 227 l 1
 573 -200 l 1
 427 -200 l 1
 427 277 l 1
 0 277 l 1
EndSplineSet
EndChar
StartChar: leftltrtverthvform
Encoding: 9546 9546 208
Width: 1000
Flags: W
LayerCount: 2
Fore
SplineSet
0 277 m 1
 0 323 l 1
 427 323 l 1
 427 800 l 1
 573 800 l 1
 573 373 l 1
 1000 373 l 1
 1000 227 l 1
 573 227 l 1
 573 -200 l 1
 427 -200 l 1
 427 277 l 1
 0 277 l 1
EndSplineSet
EndChar
StartChar: zero.slash
Encoding: 63032 63032 121
Width: 1000
Flags: W
LayerCount: 2
Fore
SplineSet
247 310 m 2
 247 329 l 2
 247 427 255 615 405 666 c 0
 432 673 461 678 499 678 c 0
 577 678 646 655 680 616 c 0
 740 548 751 433 753 360 c 0
 753 347 753 335 753 325 c 0
 753 122 702 24 594 -11 c 0
 568 -18 538 -22 499 -22 c 0
 375 -22 248 26 247 310 c 2
325 308 m 2
 325 220 336 160 353 120 c 1
 603 591 l 1
 569 611 531 616 499 616 c 0
 421 616 325 583 325 370 c 2
 325 308 l 2
385 76 m 1
 399 66 413 58 427 52 c 0
 453 42 479 39 501 39 c 0
 531 39 568 45 601 66 c 0
 645 99 675 168 675 309 c 2
 675 370 l 2
 675 460 662 517 642 554 c 1
 385 76 l 1
EndSplineSet
EndChar
